<svg width="927" height="798" viewBox="0 0 927 798" fill="none" xmlns="http://www.w3.org/2000/svg">
<path d="M236 797.5L231 779H870L865.5 797.5H236Z" fill="white" fill-opacity="0.64"/>
<path d="M231 779L225 757.5H875.5L870 779H231Z" fill="white" fill-opacity="0.88"/>
<path d="M2.5 712.5C2.5 717 1 725 10 725H215.5L225.5 758.5L875.5 758L884 727.5H915.5C922.3 727.5 924 721.833 924 719V211H119.5V137.5H12.5C4.99993 137.5 2.50011 141 2.5 150.5C2.49803 318.757 2.49952 614.776 2.49991 693.313L2.5 712.5Z" fill="white"/>
<path d="M119.5 211V137.5V53C119.5 44.2 125.167 42.6667 128.5 43H288C295.833 29.6667 354 3 524 3C694 3 748.833 29.6667 755 43H915C921.8 43 923.833 49 924 52V211H119.5Z" fill="white"/>
<path d="M15 727.5C6 727.5 2.5 723.5 2.5 719C2.5 718.6 2.49778 342 2.50002 150.5C2.50013 141 4.99995 137.5 12.5 137.5C22.3948 137.5 87.8017 137.5 119.5 137.5M119.5 137.5V211H924M119.5 137.5C119.5 114.167 119.5 61.8 119.5 53C119.5 44.2 125.167 42.6667 128.5 43H288C295.833 29.6667 354 3 524 3C694 3 748.833 29.6667 755 43C805.5 43 908.2 43 915 43C921.8 43 923.833 49 924 52V211M924 211V719C924 721.833 922.3 727.5 915.5 727.5C908.7 727.5 891.667 727.5 884 727.5L875.5 758M107 727.5H217L225.5 758.5M226 761L229 772M230 775.5L233 786.5M234 790L235.5 795.5M874.5 761L871.5 772.5M871 774.5L867.5 787M867 789L865.5 794.5" stroke="#FF6776" stroke-width="5"/>
<path d="M62 706L84.5167 742H39.4833L62 706Z" fill="#FF6776"/>
<path d="M473.693 140V112.364H479.536V135.183H491.384V140H473.693ZM500.722 140H494.461L504.001 112.364H511.531L521.058 140H514.797L507.874 118.679H507.658L500.722 140ZM500.331 129.137H515.121V133.698H500.331V129.137ZM525.926 112.364L532.606 133.361H532.862L539.555 112.364H546.033L536.506 140H528.976L519.435 112.364H525.926ZM550.449 140H544.187L553.728 112.364H561.258L570.785 140H564.523L557.601 118.679H557.385L550.449 140ZM550.057 129.137H564.847V133.698H550.057V129.137Z" fill="#FF6776"/>
<path d="M418.619 755H412.357L421.898 727.364H429.428L438.955 755H432.693L425.771 733.679H425.555L418.619 755ZM418.227 744.137H433.017V748.698H418.227V744.137ZM459.351 727.364H465.194V745.311C465.194 747.326 464.713 749.089 463.75 750.601C462.797 752.112 461.461 753.291 459.743 754.136C458.024 754.973 456.023 755.391 453.738 755.391C451.444 755.391 449.437 754.973 447.719 754.136C446.001 753.291 444.665 752.112 443.711 750.601C442.758 749.089 442.281 747.326 442.281 745.311V727.364H448.124V744.812C448.124 745.864 448.353 746.8 448.812 747.619C449.28 748.437 449.937 749.08 450.782 749.548C451.628 750.016 452.613 750.25 453.738 750.25C454.871 750.25 455.856 750.016 456.693 749.548C457.538 749.08 458.191 748.437 458.65 747.619C459.117 746.8 459.351 745.864 459.351 744.812V727.364ZM479.798 755H470.002V727.364H479.879C482.659 727.364 485.052 727.917 487.058 729.023C489.065 730.121 490.607 731.7 491.687 733.76C492.776 735.82 493.32 738.285 493.32 741.155C493.32 744.034 492.776 746.508 491.687 748.577C490.607 750.646 489.056 752.234 487.031 753.34C485.016 754.447 482.605 755 479.798 755ZM475.845 749.994H479.556C481.283 749.994 482.736 749.688 483.914 749.076C485.102 748.455 485.992 747.497 486.586 746.202C487.189 744.897 487.49 743.215 487.49 741.155C487.49 739.113 487.189 737.444 486.586 736.148C485.992 734.853 485.106 733.899 483.928 733.288C482.749 732.676 481.296 732.37 479.569 732.37H475.845V749.994ZM503.491 727.364V755H497.648V727.364H503.491ZM507.246 732.181V727.364H529.943V732.181H521.482V755H515.707V732.181H507.246ZM557.816 741.182C557.816 744.196 557.245 746.759 556.102 748.874C554.969 750.988 553.421 752.603 551.46 753.718C549.508 754.825 547.313 755.378 544.875 755.378C542.419 755.378 540.215 754.82 538.263 753.705C536.31 752.589 534.768 750.974 533.634 748.86C532.501 746.746 531.934 744.187 531.934 741.182C531.934 738.168 532.501 735.604 533.634 733.49C534.768 731.376 536.31 729.766 538.263 728.659C540.215 727.544 542.419 726.986 544.875 726.986C547.313 726.986 549.508 727.544 551.46 728.659C553.421 729.766 554.969 731.376 556.102 733.49C557.245 735.604 557.816 738.168 557.816 741.182ZM551.892 741.182C551.892 739.23 551.599 737.583 551.015 736.243C550.439 734.902 549.625 733.886 548.572 733.193C547.52 732.5 546.287 732.154 544.875 732.154C543.462 732.154 542.23 732.5 541.177 733.193C540.125 733.886 539.306 734.902 538.721 736.243C538.146 737.583 537.858 739.23 537.858 741.182C537.858 743.134 538.146 744.78 538.721 746.121C539.306 747.461 540.125 748.478 541.177 749.17C542.23 749.863 543.462 750.21 544.875 750.21C546.287 750.21 547.52 749.863 548.572 749.17C549.625 748.478 550.439 747.461 551.015 746.121C551.599 744.78 551.892 743.134 551.892 741.182ZM587.54 741.182C587.54 744.196 586.969 746.759 585.827 748.874C584.693 750.988 583.146 752.603 581.185 753.718C579.232 754.825 577.037 755.378 574.599 755.378C572.143 755.378 569.939 754.82 567.987 753.705C566.035 752.589 564.492 750.974 563.359 748.86C562.225 746.746 561.658 744.187 561.658 741.182C561.658 738.168 562.225 735.604 563.359 733.49C564.492 731.376 566.035 729.766 567.987 728.659C569.939 727.544 572.143 726.986 574.599 726.986C577.037 726.986 579.232 727.544 581.185 728.659C583.146 729.766 584.693 731.376 585.827 733.49C586.969 735.604 587.54 738.168 587.54 741.182ZM581.616 741.182C581.616 739.23 581.324 737.583 580.739 736.243C580.164 734.902 579.349 733.886 578.297 733.193C577.244 732.5 576.012 732.154 574.599 732.154C573.187 732.154 571.955 732.5 570.902 733.193C569.849 733.886 569.031 734.902 568.446 736.243C567.87 737.583 567.582 739.23 567.582 741.182C567.582 743.134 567.87 744.78 568.446 746.121C569.031 747.461 569.849 748.478 570.902 749.17C571.955 749.863 573.187 750.21 574.599 750.21C576.012 750.21 577.244 749.863 578.297 749.17C579.349 748.478 580.164 747.461 580.739 746.121C581.324 744.78 581.616 743.134 581.616 741.182ZM591.869 755V727.364H602.772C604.859 727.364 606.641 727.737 608.116 728.484C609.6 729.221 610.729 730.269 611.503 731.628C612.286 732.977 612.677 734.565 612.677 736.391C612.677 738.227 612.281 739.805 611.49 741.128C610.698 742.441 609.551 743.449 608.048 744.151C606.555 744.852 604.747 745.203 602.624 745.203H595.323V740.507H601.679C602.795 740.507 603.721 740.354 604.459 740.048C605.197 739.742 605.745 739.284 606.105 738.672C606.474 738.06 606.659 737.3 606.659 736.391C606.659 735.474 606.474 734.7 606.105 734.07C605.745 733.441 605.192 732.964 604.445 732.64C603.708 732.307 602.777 732.141 601.652 732.141H597.712V755H591.869ZM606.794 742.423L613.662 755H607.212L600.492 742.423H606.794ZM622.649 727.364V755H616.806V727.364H622.649ZM644.527 727.364H650.37V745.311C650.37 747.326 649.889 749.089 648.926 750.601C647.973 752.112 646.637 753.291 644.918 754.136C643.2 754.973 641.198 755.391 638.913 755.391C636.619 755.391 634.613 754.973 632.895 754.136C631.177 753.291 629.841 752.112 628.887 750.601C627.933 749.089 627.457 747.326 627.457 745.311V727.364H633.3V744.812C633.3 745.864 633.529 746.8 633.988 747.619C634.456 748.437 635.112 749.08 635.958 749.548C636.804 750.016 637.789 750.25 638.913 750.25C640.047 750.25 641.032 750.016 641.869 749.548C642.714 749.08 643.366 748.437 643.825 747.619C644.293 746.8 644.527 745.864 644.527 744.812V727.364ZM655.177 727.364H662.383L669.994 745.932H670.318L677.929 727.364H685.135V755H679.467V737.012H679.238L672.086 754.865H668.226L661.074 736.945H660.845V755H655.177V727.364Z" fill="#FF6776"/>
<path d="M17.5884 688.638C17.5316 688.065 17.2878 687.62 16.8569 687.303C16.426 686.985 15.8413 686.827 15.1026 686.827C14.6007 686.827 14.177 686.898 13.8313 687.04C13.4857 687.177 13.2205 687.369 13.0359 687.615C12.8559 687.861 12.766 688.141 12.766 688.453C12.7565 688.714 12.811 688.941 12.9293 689.135C13.0524 689.329 13.2205 689.497 13.4336 689.639C13.6467 689.777 13.8929 689.897 14.1722 690.001C14.4516 690.101 14.7499 690.186 15.0671 690.257L16.3739 690.57C17.0084 690.712 17.5908 690.901 18.1211 691.138C18.6514 691.375 19.1107 691.666 19.4989 692.011C19.8872 692.357 20.1879 692.764 20.4009 693.233C20.6187 693.702 20.73 694.239 20.7347 694.845C20.73 695.735 20.5027 696.507 20.0529 697.161C19.6078 697.809 18.9639 698.313 18.1211 698.673C17.283 699.028 16.2721 699.206 15.0884 699.206C13.9142 699.206 12.8915 699.026 12.0202 698.666C11.1538 698.306 10.4767 697.774 9.98899 697.068C9.50604 696.358 9.25272 695.48 9.22905 694.433H12.2049C12.238 694.921 12.3777 695.328 12.6239 695.655C12.8749 695.977 13.2087 696.221 13.6254 696.386C14.0468 696.547 14.5226 696.628 15.0529 696.628C15.5737 696.628 16.0259 696.552 16.4094 696.401C16.7977 696.249 17.0984 696.038 17.3114 695.768C17.5245 695.499 17.631 695.188 17.631 694.838C17.631 694.511 17.534 694.237 17.3398 694.014C17.1504 693.792 16.8711 693.602 16.5018 693.446C16.1372 693.29 15.6897 693.148 15.1594 693.02L13.5756 692.622C12.3493 692.324 11.381 691.857 10.6708 691.223C9.96058 690.589 9.60784 689.734 9.61257 688.659C9.60784 687.778 9.84221 687.009 10.3157 686.351C10.7939 685.693 11.4497 685.179 12.283 684.81C13.1164 684.44 14.0633 684.256 15.1239 684.256C16.2035 684.256 17.1457 684.44 17.9506 684.81C18.7603 685.179 19.39 685.693 19.8398 686.351C20.2897 687.009 20.5217 687.771 20.5359 688.638H17.5884ZM25.8786 684.455V699H22.8033V684.455H25.8786ZM36.2994 688.638C36.2425 688.065 35.9987 687.62 35.5678 687.303C35.137 686.985 34.5522 686.827 33.8136 686.827C33.3117 686.827 32.8879 686.898 32.5423 687.04C32.1966 687.177 31.9315 687.369 31.7468 687.615C31.5669 687.861 31.4769 688.141 31.4769 688.453C31.4674 688.714 31.5219 688.941 31.6403 689.135C31.7634 689.329 31.9315 689.497 32.1445 689.639C32.3576 689.777 32.6038 689.897 32.8832 690.001C33.1625 690.101 33.4608 690.186 33.7781 690.257L35.0849 690.57C35.7193 690.712 36.3017 690.901 36.832 691.138C37.3623 691.375 37.8216 691.666 38.2099 692.011C38.5981 692.357 38.8988 692.764 39.1119 693.233C39.3297 693.702 39.4409 694.239 39.4457 694.845C39.4409 695.735 39.2137 696.507 38.7638 697.161C38.3188 697.809 37.6748 698.313 36.832 698.673C35.994 699.028 34.9831 699.206 33.7994 699.206C32.6251 699.206 31.6024 699.026 30.7312 698.666C29.8647 698.306 29.1876 697.774 28.6999 697.068C28.217 696.358 27.9637 695.48 27.94 694.433H30.9158C30.949 694.921 31.0887 695.328 31.3349 695.655C31.5858 695.977 31.9196 696.221 32.3363 696.386C32.7577 696.547 33.2335 696.628 33.7638 696.628C34.2847 696.628 34.7369 696.552 35.1204 696.401C35.5086 696.249 35.8093 696.038 36.0224 695.768C36.2354 695.499 36.342 695.188 36.342 694.838C36.342 694.511 36.2449 694.237 36.0508 694.014C35.8614 693.792 35.582 693.602 35.2127 693.446C34.8481 693.29 34.4007 693.148 33.8704 693.02L32.2866 692.622C31.0603 692.324 30.092 691.857 29.3817 691.223C28.6715 690.589 28.3188 689.734 28.3235 688.659C28.3188 687.778 28.5531 687.009 29.0266 686.351C29.5049 685.693 30.1606 685.179 30.994 684.81C31.8273 684.44 32.7743 684.256 33.8349 684.256C34.9144 684.256 35.8567 684.44 36.6616 684.81C37.4712 685.179 38.101 685.693 38.5508 686.351C39.0006 687.009 39.2326 687.771 39.2468 688.638H36.2994ZM49.4048 688.638C49.348 688.065 49.1042 687.62 48.6733 687.303C48.2424 686.985 47.6577 686.827 46.919 686.827C46.4171 686.827 45.9934 686.898 45.6477 687.04C45.3021 687.177 45.0369 687.369 44.8523 687.615C44.6723 687.861 44.5824 688.141 44.5824 688.453C44.5729 688.714 44.6274 688.941 44.7457 689.135C44.8688 689.329 45.0369 689.497 45.25 689.639C45.4631 689.777 45.7093 689.897 45.9886 690.001C46.268 690.101 46.5663 690.186 46.8835 690.257L48.1903 690.57C48.8248 690.712 49.4072 690.901 49.9375 691.138C50.4678 691.375 50.9271 691.666 51.3153 692.011C51.7036 692.357 52.0043 692.764 52.2173 693.233C52.4351 693.702 52.5464 694.239 52.5511 694.845C52.5464 695.735 52.3191 696.507 51.8693 697.161C51.4242 697.809 50.7803 698.313 49.9375 698.673C49.0994 699.028 48.0885 699.206 46.9048 699.206C45.7306 699.206 44.7079 699.026 43.8366 698.666C42.9702 698.306 42.2931 697.774 41.8054 697.068C41.3224 696.358 41.0691 695.48 41.0455 694.433H44.0213C44.0545 694.921 44.1941 695.328 44.4403 695.655C44.6913 695.977 45.0251 696.221 45.4418 696.386C45.8632 696.547 46.339 696.628 46.8693 696.628C47.3902 696.628 47.8423 696.552 48.2259 696.401C48.6141 696.249 48.9148 696.038 49.1278 695.768C49.3409 695.499 49.4474 695.188 49.4474 694.838C49.4474 694.511 49.3504 694.237 49.1562 694.014C48.9669 693.792 48.6875 693.602 48.3182 693.446C47.9536 693.29 47.5062 693.148 46.9759 693.02L45.392 692.622C44.1657 692.324 43.1974 691.857 42.4872 691.223C41.777 690.589 41.4242 689.734 41.429 688.659C41.4242 687.778 41.6586 687.009 42.1321 686.351C42.6103 685.693 43.2661 685.179 44.0994 684.81C44.9328 684.44 45.8797 684.256 46.9403 684.256C48.0199 684.256 48.9621 684.44 49.767 684.81C50.5767 685.179 51.2064 685.693 51.6562 686.351C52.1061 687.009 52.3381 687.771 52.3523 688.638H49.4048ZM54.6197 699V684.455H64.4208V686.99H57.695V690.456H63.9165V692.991H57.695V696.464H64.4492V699H54.6197ZM66.8658 699V684.455H72.6044C73.7076 684.455 74.6475 684.665 75.424 685.087C76.2005 685.503 76.7924 686.083 77.1996 686.827C77.6115 687.565 77.8175 688.418 77.8175 689.384C77.8175 690.349 77.6091 691.202 77.1925 691.94C76.7758 692.679 76.1721 693.254 75.3814 693.666C74.5954 694.078 73.6437 694.284 72.5263 694.284H68.8686V691.82H72.0291C72.621 691.82 73.1087 691.718 73.4922 691.514C73.8804 691.306 74.1693 691.019 74.3587 690.655C74.5528 690.286 74.6499 689.862 74.6499 689.384C74.6499 688.901 74.5528 688.479 74.3587 688.119C74.1693 687.755 73.8804 687.473 73.4922 687.274C73.1039 687.071 72.6115 686.969 72.0149 686.969H69.9411V699H66.8658ZM80.6424 699H77.3469L82.3683 684.455H86.3313L91.3455 699H88.0501L84.4066 687.778H84.293L80.6424 699ZM80.4364 693.283H88.2205V695.683H80.4364V693.283ZM82.1836 682.963C81.7764 682.963 81.426 682.821 81.1325 682.537C80.8389 682.248 80.6921 681.907 80.6921 681.514C80.6921 681.112 80.8389 680.771 81.1325 680.491C81.426 680.212 81.7764 680.072 82.1836 680.072C82.5955 680.072 82.9435 680.212 83.2276 680.491C83.5165 680.771 83.6609 681.112 83.6609 681.514C83.6609 681.907 83.5165 682.248 83.2276 682.537C82.9435 682.821 82.5955 682.963 82.1836 682.963ZM86.5302 682.963C86.123 682.963 85.7726 682.821 85.479 682.537C85.1855 682.248 85.0387 681.907 85.0387 681.514C85.0387 681.112 85.1855 680.771 85.479 680.491C85.7726 680.212 86.123 680.072 86.5302 680.072C86.9421 680.072 87.2901 680.212 87.5742 680.491C87.863 680.771 88.0075 681.112 88.0075 681.514C88.0075 681.907 87.863 682.248 87.5742 682.537C87.2901 682.821 86.9421 682.963 86.5302 682.963ZM95.6033 699H92.3079L97.3292 684.455H101.292L106.306 699H103.011L99.3675 687.778H99.2539L95.6033 699ZM95.3974 693.283H103.181V695.683H95.3974V693.283ZM97.1445 682.963C96.7373 682.963 96.387 682.821 96.0934 682.537C95.7998 682.248 95.6531 681.907 95.6531 681.514C95.6531 681.112 95.7998 680.771 96.0934 680.491C96.387 680.212 96.7373 680.072 97.1445 680.072C97.5565 680.072 97.9045 680.212 98.1886 680.491C98.4774 680.771 98.6218 681.112 98.6218 681.514C98.6218 681.907 98.4774 682.248 98.1886 682.537C97.9045 682.821 97.5565 682.963 97.1445 682.963ZM101.491 682.963C101.084 682.963 100.734 682.821 100.44 682.537C100.146 682.248 99.9996 681.907 99.9996 681.514C99.9996 681.112 100.146 680.771 100.44 680.491C100.734 680.212 101.084 680.072 101.491 680.072C101.903 680.072 102.251 680.212 102.535 680.491C102.824 680.771 102.968 681.112 102.968 681.514C102.968 681.907 102.824 682.248 102.535 682.537C102.251 682.821 101.903 682.963 101.491 682.963ZM115.616 688.638C115.559 688.065 115.315 687.62 114.884 687.303C114.453 686.985 113.869 686.827 113.13 686.827C112.628 686.827 112.204 686.898 111.859 687.04C111.513 687.177 111.248 687.369 111.063 687.615C110.883 687.861 110.793 688.141 110.793 688.453C110.784 688.714 110.838 688.941 110.957 689.135C111.08 689.329 111.248 689.497 111.461 689.639C111.674 689.777 111.92 689.897 112.2 690.001C112.479 690.101 112.777 690.186 113.094 690.257L114.401 690.57C115.036 690.712 115.618 690.901 116.148 691.138C116.679 691.375 117.138 691.666 117.526 692.011C117.915 692.357 118.215 692.764 118.428 693.233C118.646 693.702 118.757 694.239 118.762 694.845C118.757 695.735 118.53 696.507 118.08 697.161C117.635 697.809 116.991 698.313 116.148 698.673C115.31 699.028 114.299 699.206 113.116 699.206C111.942 699.206 110.919 699.026 110.048 698.666C109.181 698.306 108.504 697.774 108.016 697.068C107.533 696.358 107.28 695.48 107.256 694.433H110.232C110.265 694.921 110.405 695.328 110.651 695.655C110.902 695.977 111.236 696.221 111.653 696.386C112.074 696.547 112.55 696.628 113.08 696.628C113.601 696.628 114.053 696.552 114.437 696.401C114.825 696.249 115.126 696.038 115.339 695.768C115.552 695.499 115.658 695.188 115.658 694.838C115.658 694.511 115.561 694.237 115.367 694.014C115.178 693.792 114.898 693.602 114.529 693.446C114.165 693.29 113.717 693.148 113.187 693.02L111.603 692.622C110.377 692.324 109.408 691.857 108.698 691.223C107.988 690.589 107.635 689.734 107.64 688.659C107.635 687.778 107.87 687.009 108.343 686.351C108.821 685.693 109.477 685.179 110.31 684.81C111.144 684.44 112.091 684.256 113.151 684.256C114.231 684.256 115.173 684.44 115.978 684.81C116.788 685.179 117.417 685.693 117.867 686.351C118.317 687.009 118.549 687.771 118.563 688.638H115.616Z" fill="#FF6776"/>
<path d="M191.19 354V284.909H237.746V296.953H205.798V313.416H235.351V325.46H205.798V341.956H237.881V354H191.19ZM242.928 296.953V284.909H299.672V296.953H278.519V354H264.08V296.953H242.928ZM302.585 296.953V284.909H359.329V296.953H338.176V354H323.737V296.953H302.585ZM364.873 354V284.909H411.429V296.953H379.481V313.416H409.034V325.46H379.481V341.956H411.564V354H364.873ZM431.725 284.909L448.424 337.402H449.065L465.798 284.909H481.991L458.174 354H439.349L415.498 284.909H431.725ZM546.101 319.455C546.101 326.989 544.673 333.399 541.817 338.684C538.983 343.969 535.114 348.006 530.212 350.795C525.331 353.561 519.843 354.945 513.748 354.945C507.609 354.945 502.098 353.55 497.218 350.761C492.338 347.973 488.48 343.935 485.647 338.65C482.813 333.365 481.396 326.966 481.396 319.455C481.396 311.92 482.813 305.51 485.647 300.225C488.48 294.94 492.338 290.914 497.218 288.148C502.098 285.359 507.609 283.964 513.748 283.964C519.843 283.964 525.331 285.359 530.212 288.148C535.114 290.914 538.983 294.94 541.817 300.225C544.673 305.51 546.101 311.92 546.101 319.455ZM531.291 319.455C531.291 314.574 530.56 310.458 529.098 307.107C527.659 303.756 525.623 301.215 522.992 299.483C520.361 297.751 517.28 296.885 513.748 296.885C510.217 296.885 507.136 297.751 504.505 299.483C501.873 301.215 499.827 303.756 498.365 307.107C496.926 310.458 496.206 314.574 496.206 319.455C496.206 324.335 496.926 328.451 498.365 331.802C499.827 335.153 501.873 337.694 504.505 339.426C507.136 341.158 510.217 342.024 513.748 342.024C517.28 342.024 520.361 341.158 522.992 339.426C525.623 337.694 527.659 335.153 529.098 331.802C530.56 328.451 531.291 324.335 531.291 319.455ZM504.066 278.094L496.105 277.993C496.105 273.698 497.162 270.403 499.276 268.109C501.39 265.815 503.988 264.656 507.069 264.634C508.643 264.634 509.993 264.893 511.117 265.41C512.242 265.905 513.265 266.489 514.187 267.164C515.109 267.839 515.986 268.435 516.818 268.952C517.651 269.447 518.55 269.694 519.517 269.694C520.822 269.672 521.811 269.188 522.486 268.244C523.183 267.277 523.532 266.017 523.532 264.465L531.392 264.701C531.347 268.952 530.268 272.236 528.154 274.552C526.04 276.846 523.453 278.004 520.394 278.027C518.73 278.049 517.324 277.802 516.177 277.285C515.053 276.768 514.063 276.183 513.209 275.531C512.354 274.856 511.522 274.26 510.712 273.743C509.903 273.225 508.992 272.967 507.98 272.967C506.81 272.967 505.866 273.428 505.146 274.35C504.426 275.272 504.066 276.52 504.066 278.094ZM547.336 296.953V284.909H604.08V296.953H582.927V354H568.489V296.953H547.336ZM609.625 354V284.909H656.18V296.953H624.232V313.416H653.785V325.46H624.232V341.956H656.315V354H609.625ZM661.362 296.953V284.909H718.106V296.953H696.953V354H682.515V296.953H661.362ZM723.651 354V284.909H770.206V296.953H738.258V313.416H767.811V325.46H738.258V341.956H770.341V354H723.651ZM92.4257 471V401.909H119.684C124.925 401.909 129.389 402.91 133.077 404.912C136.766 406.891 139.577 409.646 141.511 413.177C143.468 416.685 144.446 420.734 144.446 425.322C144.446 429.91 143.457 433.958 141.478 437.467C139.498 440.975 136.631 443.708 132.875 445.664C129.141 447.621 124.621 448.599 119.313 448.599H101.939V436.893H116.952C119.763 436.893 122.079 436.41 123.901 435.442C125.745 434.453 127.117 433.092 128.017 431.36C128.939 429.606 129.4 427.593 129.4 425.322C129.4 423.028 128.939 421.026 128.017 419.317C127.117 417.585 125.745 416.247 123.901 415.302C122.057 414.335 119.718 413.852 116.884 413.852H107.033V471H92.4257ZM154.065 471H138.411L162.262 401.909H181.087L204.905 471H189.251L171.945 417.697H171.405L154.065 471ZM153.086 443.843H190.061V455.245H153.086V443.843ZM224.028 401.909V471H209.42V401.909H224.028ZM278.06 424.242C277.587 422.6 276.924 421.15 276.069 419.89C275.215 418.608 274.169 417.529 272.932 416.652C271.717 415.752 270.323 415.066 268.749 414.594C267.197 414.121 265.476 413.885 263.587 413.885C260.056 413.885 256.952 414.762 254.276 416.517C251.622 418.271 249.553 420.824 248.068 424.175C246.584 427.503 245.842 431.574 245.842 436.387C245.842 441.2 246.573 445.293 248.035 448.667C249.497 452.04 251.566 454.616 254.242 456.392C256.919 458.147 260.078 459.024 263.722 459.024C267.028 459.024 269.851 458.439 272.19 457.27C274.551 456.078 276.35 454.402 277.587 452.243C278.847 450.084 279.477 447.531 279.477 444.585L282.445 445.023H264.633V434.026H293.544V442.729C293.544 448.802 292.262 454.02 289.698 458.383C287.135 462.723 283.604 466.075 279.105 468.436C274.607 470.775 269.457 471.945 263.654 471.945C257.177 471.945 251.487 470.516 246.584 467.66C241.681 464.781 237.858 460.699 235.114 455.414C232.393 450.106 231.032 443.809 231.032 436.522C231.032 430.922 231.842 425.929 233.461 421.543C235.103 417.135 237.397 413.402 240.343 410.343C243.289 407.284 246.719 404.957 250.632 403.36C254.546 401.763 258.785 400.964 263.351 400.964C267.264 400.964 270.908 401.538 274.281 402.685C277.655 403.81 280.646 405.406 283.255 407.475C285.886 409.545 288.034 412.007 289.698 414.864C291.363 417.697 292.431 420.824 292.903 424.242H278.06ZM343.393 401.909H358V446.778C358 451.816 356.797 456.224 354.391 460.002C352.007 463.781 348.667 466.727 344.371 468.841C340.075 470.933 335.071 471.978 329.359 471.978C323.624 471.978 318.608 470.933 314.312 468.841C310.017 466.727 306.677 463.781 304.293 460.002C301.909 456.224 300.717 451.816 300.717 446.778V401.909H315.325V445.529C315.325 448.161 315.898 450.5 317.045 452.547C318.215 454.593 319.856 456.201 321.97 457.371C324.085 458.54 326.547 459.125 329.359 459.125C332.192 459.125 334.655 458.54 336.747 457.371C338.861 456.201 340.491 454.593 341.638 452.547C342.808 450.5 343.393 448.161 343.393 445.529V401.909ZM363.587 413.953V401.909H420.331V413.953H399.179V471H384.74V413.953H363.587ZM468.551 401.909H483.159V446.778C483.159 451.816 481.956 456.224 479.549 460.002C477.165 463.781 473.826 466.727 469.53 468.841C465.234 470.933 460.23 471.978 454.517 471.978C448.782 471.978 443.767 470.933 439.471 468.841C435.176 466.727 431.836 463.781 429.452 460.002C427.068 456.224 425.876 451.816 425.876 446.778V401.909H440.483V445.529C440.483 448.161 441.057 450.5 442.204 452.547C443.373 454.593 445.015 456.201 447.129 457.371C449.243 458.54 451.706 459.125 454.517 459.125C457.351 459.125 459.814 458.54 461.906 457.371C464.02 456.201 465.65 454.593 466.797 452.547C467.967 450.5 468.551 448.161 468.551 445.529V401.909ZM528.858 421.779C528.588 419.058 527.43 416.944 525.383 415.437C523.336 413.93 520.559 413.177 517.05 413.177C514.666 413.177 512.653 413.514 511.012 414.189C509.37 414.841 508.11 415.752 507.233 416.922C506.379 418.091 505.951 419.418 505.951 420.902C505.906 422.139 506.165 423.219 506.727 424.141C507.312 425.063 508.11 425.862 509.122 426.536C510.135 427.188 511.304 427.762 512.631 428.257C513.958 428.729 515.375 429.134 516.882 429.471L523.089 430.956C526.103 431.63 528.869 432.53 531.388 433.654C533.907 434.779 536.089 436.162 537.933 437.804C539.777 439.446 541.205 441.38 542.217 443.607C543.252 445.833 543.78 448.386 543.803 451.265C543.78 455.493 542.701 459.159 540.564 462.262C538.45 465.344 535.391 467.739 531.388 469.448C527.407 471.135 522.606 471.978 516.983 471.978C511.405 471.978 506.547 471.124 502.409 469.414C498.293 467.705 495.077 465.175 492.761 461.824C490.467 458.45 489.263 454.278 489.151 449.308H503.286C503.444 451.624 504.107 453.559 505.277 455.11C506.469 456.64 508.054 457.798 510.033 458.585C512.035 459.35 514.295 459.732 516.814 459.732C519.288 459.732 521.436 459.372 523.258 458.653C525.102 457.933 526.53 456.932 527.542 455.65C528.554 454.368 529.06 452.895 529.06 451.231C529.06 449.679 528.599 448.375 527.677 447.317C526.778 446.26 525.451 445.361 523.696 444.619C521.965 443.876 519.839 443.202 517.32 442.594L509.797 440.705C503.972 439.288 499.373 437.073 495.999 434.059C492.626 431.046 490.95 426.986 490.973 421.881C490.95 417.697 492.063 414.043 494.312 410.917C496.584 407.79 499.699 405.35 503.657 403.596C507.616 401.842 512.114 400.964 517.152 400.964C522.279 400.964 526.755 401.842 530.578 403.596C534.424 405.35 537.416 407.79 539.552 410.917C541.689 414.043 542.791 417.664 542.858 421.779H528.858ZM579.924 471H564.271L588.122 401.909H606.947L630.764 471H615.111L597.804 417.697H597.265L579.924 471ZM578.946 443.843H615.921V455.245H578.946V443.843ZM677.956 401.909H692.564V446.778C692.564 451.816 691.36 456.224 688.954 460.002C686.57 463.781 683.23 466.727 678.934 468.841C674.639 470.933 669.634 471.978 663.922 471.978C658.187 471.978 653.171 470.933 648.876 468.841C644.58 466.727 641.24 463.781 638.856 460.002C636.472 456.224 635.28 451.816 635.28 446.778V401.909H649.888V445.529C649.888 448.161 650.461 450.5 651.608 452.547C652.778 454.593 654.42 456.201 656.534 457.371C658.648 458.54 661.111 459.125 663.922 459.125C666.756 459.125 669.218 458.54 671.31 457.371C673.424 456.201 675.055 454.593 676.202 452.547C677.371 450.5 677.956 448.161 677.956 445.529V401.909ZM700.782 471V401.909H715.39V458.956H745.01V471H700.782ZM764.555 471H748.901L772.753 401.909H791.577L815.395 471H799.741L782.435 417.697H781.895L764.555 471ZM763.576 443.843H800.551V455.245H763.576V443.843ZM855.814 421.779C855.544 419.058 854.386 416.944 852.339 415.437C850.292 413.93 847.515 413.177 844.006 413.177C841.622 413.177 839.609 413.514 837.968 414.189C836.326 414.841 835.066 415.752 834.189 416.922C833.334 418.091 832.907 419.418 832.907 420.902C832.862 422.139 833.121 423.219 833.683 424.141C834.268 425.063 835.066 425.862 836.078 426.536C837.09 427.188 838.26 427.762 839.587 428.257C840.914 428.729 842.331 429.134 843.838 429.471L850.045 430.956C853.059 431.63 855.825 432.53 858.344 433.654C860.863 434.779 863.044 436.162 864.889 437.804C866.733 439.446 868.161 441.38 869.173 443.607C870.208 445.833 870.736 448.386 870.759 451.265C870.736 455.493 869.657 459.159 867.52 462.262C865.406 465.344 862.347 467.739 858.344 469.448C854.363 471.135 849.561 471.978 843.939 471.978C838.361 471.978 833.503 471.124 829.365 469.414C825.249 467.705 822.033 465.175 819.716 461.824C817.422 458.45 816.219 454.278 816.107 449.308H830.242C830.399 451.624 831.063 453.559 832.232 455.11C833.424 456.64 835.01 457.798 836.989 458.585C838.991 459.35 841.251 459.732 843.77 459.732C846.244 459.732 848.392 459.372 850.214 458.653C852.058 457.933 853.486 456.932 854.498 455.65C855.51 454.368 856.016 452.895 856.016 451.231C856.016 449.679 855.555 448.375 854.633 447.317C853.733 446.26 852.406 445.361 850.652 444.619C848.92 443.876 846.795 443.202 844.276 442.594L836.753 440.705C830.928 439.288 826.329 437.073 822.955 434.059C819.582 431.046 817.906 426.986 817.928 421.881C817.906 417.697 819.019 414.043 821.268 410.917C823.54 407.79 826.655 405.35 830.613 403.596C834.571 401.842 839.07 400.964 844.107 400.964C849.235 400.964 853.711 401.842 857.534 403.596C861.38 405.35 864.371 407.79 866.508 410.917C868.645 414.043 869.747 417.664 869.814 421.779H855.814ZM172.445 538.779C172.175 536.058 171.016 533.944 168.97 532.437C166.923 530.93 164.146 530.177 160.637 530.177C158.253 530.177 156.24 530.514 154.598 531.189C152.957 531.841 151.697 532.752 150.82 533.922C149.965 535.091 149.538 536.418 149.538 537.902C149.493 539.139 149.752 540.219 150.314 541.141C150.899 542.063 151.697 542.862 152.709 543.536C153.721 544.188 154.891 544.762 156.218 545.257C157.545 545.729 158.962 546.134 160.468 546.471L166.676 547.956C169.69 548.63 172.456 549.53 174.975 550.654C177.494 551.779 179.675 553.162 181.52 554.804C183.364 556.446 184.792 558.38 185.804 560.607C186.839 562.833 187.367 565.386 187.39 568.265C187.367 572.493 186.288 576.159 184.151 579.262C182.037 582.344 178.978 584.739 174.975 586.448C170.994 588.135 166.192 588.978 160.57 588.978C154.992 588.978 150.134 588.124 145.996 586.414C141.88 584.705 138.664 582.175 136.347 578.824C134.053 575.45 132.85 571.278 132.738 566.308H146.873C147.03 568.624 147.694 570.559 148.863 572.11C150.055 573.64 151.641 574.798 153.62 575.585C155.622 576.35 157.882 576.732 160.401 576.732C162.875 576.732 165.023 576.372 166.844 575.653C168.689 574.933 170.117 573.932 171.129 572.65C172.141 571.368 172.647 569.895 172.647 568.231C172.647 566.679 172.186 565.375 171.264 564.317C170.364 563.26 169.037 562.361 167.283 561.619C165.551 560.876 163.426 560.202 160.907 559.594L153.384 557.705C147.559 556.288 142.96 554.073 139.586 551.059C136.212 548.046 134.537 543.986 134.559 538.881C134.537 534.697 135.65 531.043 137.899 527.917C140.171 524.79 143.286 522.35 147.244 520.596C151.202 518.842 155.7 517.964 160.738 517.964C165.866 517.964 170.342 518.842 174.165 520.596C178.011 522.35 181.002 524.79 183.139 527.917C185.275 531.043 186.377 534.664 186.445 538.779H172.445ZM193.415 588V518.909H239.971V530.953H208.023V547.416H237.575V559.46H208.023V575.956H240.105V588H193.415ZM247.784 588V518.909H262.392V575.956H292.012V588H247.784ZM341.008 541.242C340.536 539.6 339.872 538.15 339.018 536.89C338.163 535.608 337.117 534.529 335.88 533.652C334.666 532.752 333.271 532.066 331.697 531.594C330.145 531.121 328.425 530.885 326.536 530.885C323.005 530.885 319.901 531.762 317.224 533.517C314.571 535.271 312.501 537.824 311.017 541.175C309.533 544.503 308.791 548.574 308.791 553.387C308.791 558.2 309.521 562.293 310.983 565.667C312.445 569.04 314.514 571.616 317.191 573.392C319.867 575.147 323.027 576.024 326.671 576.024C329.977 576.024 332.799 575.439 335.138 574.27C337.5 573.078 339.299 571.402 340.536 569.243C341.795 567.084 342.425 564.531 342.425 561.585L345.394 562.023H327.581V551.026H356.493V559.729C356.493 565.802 355.211 571.02 352.647 575.383C350.083 579.723 346.552 583.075 342.054 585.436C337.556 587.775 332.406 588.945 326.603 588.945C320.126 588.945 314.436 587.516 309.533 584.66C304.63 581.781 300.806 577.699 298.063 572.414C295.341 567.106 293.981 560.809 293.981 553.522C293.981 547.922 294.79 542.929 296.409 538.543C298.051 534.135 300.345 530.402 303.292 527.343C306.238 524.284 309.668 521.957 313.581 520.36C317.494 518.763 321.734 517.964 326.299 517.964C330.213 517.964 333.856 518.538 337.23 519.685C340.603 520.81 343.595 522.406 346.204 524.475C348.835 526.545 350.983 529.007 352.647 531.864C354.311 534.697 355.38 537.824 355.852 541.242H341.008ZM406.341 518.909H420.949V563.778C420.949 568.816 419.746 573.224 417.339 577.002C414.955 580.781 411.615 583.727 407.32 585.841C403.024 587.933 398.02 588.978 392.307 588.978C386.572 588.978 381.557 587.933 377.261 585.841C372.965 583.727 369.625 580.781 367.241 577.002C364.857 573.224 363.665 568.816 363.665 563.778V518.909H378.273V562.529C378.273 565.161 378.847 567.5 379.994 569.547C381.163 571.593 382.805 573.201 384.919 574.371C387.033 575.54 389.496 576.125 392.307 576.125C395.141 576.125 397.604 575.54 399.695 574.371C401.809 573.201 403.44 571.593 404.587 569.547C405.757 567.5 406.341 565.161 406.341 562.529V518.909ZM429.167 588V518.909H456.831C461.913 518.909 466.153 519.663 469.549 521.169C472.945 522.676 475.498 524.768 477.207 527.444C478.916 530.098 479.771 533.157 479.771 536.62C479.771 539.319 479.231 541.692 478.152 543.739C477.072 545.763 475.588 547.427 473.699 548.732C471.832 550.013 469.695 550.924 467.289 551.464V552.139C469.92 552.251 472.383 552.993 474.677 554.365C476.993 555.737 478.871 557.66 480.311 560.134C481.75 562.586 482.47 565.509 482.47 568.906C482.47 572.571 481.559 575.844 479.737 578.723C477.938 581.579 475.273 583.839 471.742 585.504C468.211 587.168 463.859 588 458.686 588H429.167ZM443.775 576.058H455.684C459.754 576.058 462.723 575.282 464.59 573.73C466.457 572.155 467.39 570.064 467.39 567.455C467.39 565.543 466.929 563.856 466.007 562.395C465.085 560.933 463.769 559.786 462.06 558.953C460.373 558.121 458.36 557.705 456.021 557.705H443.775V576.058ZM443.775 547.821H454.604C456.606 547.821 458.382 547.472 459.934 546.775C461.509 546.055 462.746 545.043 463.645 543.739C464.567 542.434 465.028 540.871 465.028 539.049C465.028 536.553 464.14 534.54 462.363 533.011C460.609 531.481 458.113 530.717 454.874 530.717H443.775V547.821ZM506.362 588V518.909H520.97V547.416H550.624V518.909H565.197V588H550.624V559.46H520.97V588H506.362ZM588.049 518.909V588H573.441V518.909H588.049ZM596.267 588V518.909H610.875V575.956H640.495V588H596.267ZM674.032 518.909H688.471V567.084C688.471 571.537 687.47 575.405 685.468 578.689C683.489 581.973 680.734 584.503 677.203 586.279C673.672 588.056 669.567 588.945 664.889 588.945C660.729 588.945 656.95 588.214 653.554 586.752C650.181 585.267 647.504 583.018 645.525 580.005C643.546 576.968 642.568 573.156 642.59 568.568H657.13C657.175 570.39 657.546 571.953 658.243 573.257C658.963 574.539 659.941 575.529 661.178 576.226C662.438 576.901 663.922 577.238 665.632 577.238C667.431 577.238 668.949 576.856 670.186 576.091C671.445 575.304 672.401 574.157 673.053 572.65C673.706 571.143 674.032 569.288 674.032 567.084V518.909ZM696.748 588V518.909H743.304V530.953H711.356V547.416H740.908V559.46H711.356V575.956H743.438V588H696.748ZM751.117 518.909H769.132L788.159 565.33H788.969L807.996 518.909H826.011V588H811.842V543.03H811.268L793.388 587.663H783.74L765.86 542.862H765.286V588H751.117V518.909Z" fill="#FF6776"/>
</svg>
