<svg width="927" height="798" viewBox="0 0 927 798" fill="none" xmlns="http://www.w3.org/2000/svg">
<path d="M236 797.5L231 779H870L865.5 797.5H236Z" fill="white" fill-opacity="0.64"/>
<path d="M231 779L225 757.5H875.5L870 779H231Z" fill="white" fill-opacity="0.88"/>
<path d="M2.5 712.5C2.5 717 1 725 10 725H215.5L225.5 758.5L875.5 758L884 727.5H915.5C922.3 727.5 924 721.833 924 719V211H119.5V137.5H12.5C4.99993 137.5 2.50011 141 2.5 150.5C2.49803 318.757 2.49952 614.776 2.49991 693.313L2.5 712.5Z" fill="white"/>
<path d="M119.5 211V137.5V53C119.5 44.2 125.167 42.6667 128.5 43H288C295.833 29.6667 354 3 524 3C694 3 748.833 29.6667 755 43H915C921.8 43 923.833 49 924 52V211H119.5Z" fill="white"/>
<path d="M15 727.5C6 727.5 2.5 723.5 2.5 719C2.5 718.6 2.49778 342 2.50002 150.5C2.50013 141 4.99995 137.5 12.5 137.5C22.3948 137.5 87.8017 137.5 119.5 137.5M119.5 137.5V211H924M119.5 137.5C119.5 114.167 119.5 61.8 119.5 53C119.5 44.2 125.167 42.6667 128.5 43H288C295.833 29.6667 354 3 524 3C694 3 748.833 29.6667 755 43C805.5 43 908.2 43 915 43C921.8 43 923.833 49 924 52V211M924 211V719C924 721.833 922.3 727.5 915.5 727.5C908.7 727.5 891.667 727.5 884 727.5L875.5 758M107 727.5H217L225.5 758.5M226 761L229 772M230 775.5L233 786.5M234 790L235.5 795.5M874.5 761L871.5 772.5M871 774.5L867.5 787M867 789L865.5 794.5" stroke="#FF6776" stroke-width="5"/>
<path d="M62 706L84.5167 742H39.4833L62 706Z" fill="#FF6776"/>
<path d="M473.693 140V112.364H479.536V135.183H491.384V140H473.693ZM500.722 140H494.461L504.001 112.364H511.531L521.058 140H514.797L507.874 118.679H507.658L500.722 140ZM500.331 129.137H515.121V133.698H500.331V129.137ZM525.926 112.364L532.606 133.361H532.862L539.555 112.364H546.033L536.506 140H528.976L519.435 112.364H525.926ZM550.449 140H544.187L553.728 112.364H561.258L570.785 140H564.523L557.601 118.679H557.385L550.449 140ZM550.057 129.137H564.847V133.698H550.057V129.137Z" fill="#FF6776"/>
<path d="M418.619 755H412.357L421.898 727.364H429.428L438.955 755H432.693L425.771 733.679H425.555L418.619 755ZM418.227 744.137H433.017V748.698H418.227V744.137ZM459.351 727.364H465.194V745.311C465.194 747.326 464.713 749.089 463.75 750.601C462.797 752.112 461.461 753.291 459.743 754.136C458.024 754.973 456.023 755.391 453.738 755.391C451.444 755.391 449.437 754.973 447.719 754.136C446.001 753.291 444.665 752.112 443.711 750.601C442.758 749.089 442.281 747.326 442.281 745.311V727.364H448.124V744.812C448.124 745.864 448.353 746.8 448.812 747.619C449.28 748.437 449.937 749.08 450.782 749.548C451.628 750.016 452.613 750.25 453.738 750.25C454.871 750.25 455.856 750.016 456.693 749.548C457.538 749.08 458.191 748.437 458.65 747.619C459.117 746.8 459.351 745.864 459.351 744.812V727.364ZM479.798 755H470.002V727.364H479.879C482.659 727.364 485.052 727.917 487.058 729.023C489.065 730.121 490.607 731.7 491.687 733.76C492.776 735.82 493.32 738.285 493.32 741.155C493.32 744.034 492.776 746.508 491.687 748.577C490.607 750.646 489.056 752.234 487.031 753.34C485.016 754.447 482.605 755 479.798 755ZM475.845 749.994H479.556C481.283 749.994 482.736 749.688 483.914 749.076C485.102 748.455 485.992 747.497 486.586 746.202C487.189 744.897 487.49 743.215 487.49 741.155C487.49 739.113 487.189 737.444 486.586 736.148C485.992 734.853 485.106 733.899 483.928 733.288C482.749 732.676 481.296 732.37 479.569 732.37H475.845V749.994ZM503.491 727.364V755H497.648V727.364H503.491ZM507.246 732.181V727.364H529.943V732.181H521.482V755H515.707V732.181H507.246ZM557.816 741.182C557.816 744.196 557.245 746.759 556.102 748.874C554.969 750.988 553.421 752.603 551.46 753.718C549.508 754.825 547.313 755.378 544.875 755.378C542.419 755.378 540.215 754.82 538.263 753.705C536.31 752.589 534.768 750.974 533.634 748.86C532.501 746.746 531.934 744.187 531.934 741.182C531.934 738.168 532.501 735.604 533.634 733.49C534.768 731.376 536.31 729.766 538.263 728.659C540.215 727.544 542.419 726.986 544.875 726.986C547.313 726.986 549.508 727.544 551.46 728.659C553.421 729.766 554.969 731.376 556.102 733.49C557.245 735.604 557.816 738.168 557.816 741.182ZM551.892 741.182C551.892 739.23 551.599 737.583 551.015 736.243C550.439 734.902 549.625 733.886 548.572 733.193C547.52 732.5 546.287 732.154 544.875 732.154C543.462 732.154 542.23 732.5 541.177 733.193C540.125 733.886 539.306 734.902 538.721 736.243C538.146 737.583 537.858 739.23 537.858 741.182C537.858 743.134 538.146 744.78 538.721 746.121C539.306 747.461 540.125 748.478 541.177 749.17C542.23 749.863 543.462 750.21 544.875 750.21C546.287 750.21 547.52 749.863 548.572 749.17C549.625 748.478 550.439 747.461 551.015 746.121C551.599 744.78 551.892 743.134 551.892 741.182ZM587.54 741.182C587.54 744.196 586.969 746.759 585.827 748.874C584.693 750.988 583.146 752.603 581.185 753.718C579.232 754.825 577.037 755.378 574.599 755.378C572.143 755.378 569.939 754.82 567.987 753.705C566.035 752.589 564.492 750.974 563.359 748.86C562.225 746.746 561.658 744.187 561.658 741.182C561.658 738.168 562.225 735.604 563.359 733.49C564.492 731.376 566.035 729.766 567.987 728.659C569.939 727.544 572.143 726.986 574.599 726.986C577.037 726.986 579.232 727.544 581.185 728.659C583.146 729.766 584.693 731.376 585.827 733.49C586.969 735.604 587.54 738.168 587.54 741.182ZM581.616 741.182C581.616 739.23 581.324 737.583 580.739 736.243C580.164 734.902 579.349 733.886 578.297 733.193C577.244 732.5 576.012 732.154 574.599 732.154C573.187 732.154 571.955 732.5 570.902 733.193C569.849 733.886 569.031 734.902 568.446 736.243C567.87 737.583 567.582 739.23 567.582 741.182C567.582 743.134 567.87 744.78 568.446 746.121C569.031 747.461 569.849 748.478 570.902 749.17C571.955 749.863 573.187 750.21 574.599 750.21C576.012 750.21 577.244 749.863 578.297 749.17C579.349 748.478 580.164 747.461 580.739 746.121C581.324 744.78 581.616 743.134 581.616 741.182ZM591.869 755V727.364H602.772C604.859 727.364 606.641 727.737 608.116 728.484C609.6 729.221 610.729 730.269 611.503 731.628C612.286 732.977 612.677 734.565 612.677 736.391C612.677 738.227 612.281 739.805 611.49 741.128C610.698 742.441 609.551 743.449 608.048 744.151C606.555 744.852 604.747 745.203 602.624 745.203H595.323V740.507H601.679C602.795 740.507 603.721 740.354 604.459 740.048C605.197 739.742 605.745 739.284 606.105 738.672C606.474 738.06 606.659 737.3 606.659 736.391C606.659 735.474 606.474 734.7 606.105 734.07C605.745 733.441 605.192 732.964 604.445 732.64C603.708 732.307 602.777 732.141 601.652 732.141H597.712V755H591.869ZM606.794 742.423L613.662 755H607.212L600.492 742.423H606.794ZM622.649 727.364V755H616.806V727.364H622.649ZM644.527 727.364H650.37V745.311C650.37 747.326 649.889 749.089 648.926 750.601C647.973 752.112 646.637 753.291 644.918 754.136C643.2 754.973 641.198 755.391 638.913 755.391C636.619 755.391 634.613 754.973 632.895 754.136C631.177 753.291 629.841 752.112 628.887 750.601C627.933 749.089 627.457 747.326 627.457 745.311V727.364H633.3V744.812C633.3 745.864 633.529 746.8 633.988 747.619C634.456 748.437 635.112 749.08 635.958 749.548C636.804 750.016 637.789 750.25 638.913 750.25C640.047 750.25 641.032 750.016 641.869 749.548C642.714 749.08 643.366 748.437 643.825 747.619C644.293 746.8 644.527 745.864 644.527 744.812V727.364ZM655.177 727.364H662.383L669.994 745.932H670.318L677.929 727.364H685.135V755H679.467V737.012H679.238L672.086 754.865H668.226L661.074 736.945H660.845V755H655.177V727.364Z" fill="#FF6776"/>
<path d="M17.5884 688.638C17.5316 688.065 17.2878 687.62 16.8569 687.303C16.426 686.985 15.8413 686.827 15.1026 686.827C14.6007 686.827 14.177 686.898 13.8313 687.04C13.4857 687.177 13.2205 687.369 13.0359 687.615C12.8559 687.861 12.766 688.141 12.766 688.453C12.7565 688.714 12.811 688.941 12.9293 689.135C13.0524 689.329 13.2205 689.497 13.4336 689.639C13.6467 689.777 13.8929 689.897 14.1722 690.001C14.4516 690.101 14.7499 690.186 15.0671 690.257L16.3739 690.57C17.0084 690.712 17.5908 690.901 18.1211 691.138C18.6514 691.375 19.1107 691.666 19.4989 692.011C19.8872 692.357 20.1879 692.764 20.4009 693.233C20.6187 693.702 20.73 694.239 20.7347 694.845C20.73 695.735 20.5027 696.507 20.0529 697.161C19.6078 697.809 18.9639 698.313 18.1211 698.673C17.283 699.028 16.2721 699.206 15.0884 699.206C13.9142 699.206 12.8915 699.026 12.0202 698.666C11.1538 698.306 10.4767 697.774 9.98899 697.068C9.50604 696.358 9.25272 695.48 9.22905 694.433H12.2049C12.238 694.921 12.3777 695.328 12.6239 695.655C12.8749 695.977 13.2087 696.221 13.6254 696.386C14.0468 696.547 14.5226 696.628 15.0529 696.628C15.5737 696.628 16.0259 696.552 16.4094 696.401C16.7977 696.249 17.0984 696.038 17.3114 695.768C17.5245 695.499 17.631 695.188 17.631 694.838C17.631 694.511 17.534 694.237 17.3398 694.014C17.1504 693.792 16.8711 693.602 16.5018 693.446C16.1372 693.29 15.6897 693.148 15.1594 693.02L13.5756 692.622C12.3493 692.324 11.381 691.857 10.6708 691.223C9.96058 690.589 9.60784 689.734 9.61257 688.659C9.60784 687.778 9.84221 687.009 10.3157 686.351C10.7939 685.693 11.4497 685.179 12.283 684.81C13.1164 684.44 14.0633 684.256 15.1239 684.256C16.2035 684.256 17.1457 684.44 17.9506 684.81C18.7603 685.179 19.39 685.693 19.8398 686.351C20.2897 687.009 20.5217 687.771 20.5359 688.638H17.5884ZM25.8786 684.455V699H22.8033V684.455H25.8786ZM36.2994 688.638C36.2425 688.065 35.9987 687.62 35.5678 687.303C35.137 686.985 34.5522 686.827 33.8136 686.827C33.3117 686.827 32.8879 686.898 32.5423 687.04C32.1966 687.177 31.9315 687.369 31.7468 687.615C31.5669 687.861 31.4769 688.141 31.4769 688.453C31.4674 688.714 31.5219 688.941 31.6403 689.135C31.7634 689.329 31.9315 689.497 32.1445 689.639C32.3576 689.777 32.6038 689.897 32.8832 690.001C33.1625 690.101 33.4608 690.186 33.7781 690.257L35.0849 690.57C35.7193 690.712 36.3017 690.901 36.832 691.138C37.3623 691.375 37.8216 691.666 38.2099 692.011C38.5981 692.357 38.8988 692.764 39.1119 693.233C39.3297 693.702 39.4409 694.239 39.4457 694.845C39.4409 695.735 39.2137 696.507 38.7638 697.161C38.3188 697.809 37.6748 698.313 36.832 698.673C35.994 699.028 34.9831 699.206 33.7994 699.206C32.6251 699.206 31.6024 699.026 30.7312 698.666C29.8647 698.306 29.1876 697.774 28.6999 697.068C28.217 696.358 27.9637 695.48 27.94 694.433H30.9158C30.949 694.921 31.0887 695.328 31.3349 695.655C31.5858 695.977 31.9196 696.221 32.3363 696.386C32.7577 696.547 33.2335 696.628 33.7638 696.628C34.2847 696.628 34.7369 696.552 35.1204 696.401C35.5086 696.249 35.8093 696.038 36.0224 695.768C36.2354 695.499 36.342 695.188 36.342 694.838C36.342 694.511 36.2449 694.237 36.0508 694.014C35.8614 693.792 35.582 693.602 35.2127 693.446C34.8481 693.29 34.4007 693.148 33.8704 693.02L32.2866 692.622C31.0603 692.324 30.092 691.857 29.3817 691.223C28.6715 690.589 28.3188 689.734 28.3235 688.659C28.3188 687.778 28.5531 687.009 29.0266 686.351C29.5049 685.693 30.1606 685.179 30.994 684.81C31.8273 684.44 32.7743 684.256 33.8349 684.256C34.9144 684.256 35.8567 684.44 36.6616 684.81C37.4712 685.179 38.101 685.693 38.5508 686.351C39.0006 687.009 39.2326 687.771 39.2468 688.638H36.2994ZM49.4048 688.638C49.348 688.065 49.1042 687.62 48.6733 687.303C48.2424 686.985 47.6577 686.827 46.919 686.827C46.4171 686.827 45.9934 686.898 45.6477 687.04C45.3021 687.177 45.0369 687.369 44.8523 687.615C44.6723 687.861 44.5824 688.141 44.5824 688.453C44.5729 688.714 44.6274 688.941 44.7457 689.135C44.8688 689.329 45.0369 689.497 45.25 689.639C45.4631 689.777 45.7093 689.897 45.9886 690.001C46.268 690.101 46.5663 690.186 46.8835 690.257L48.1903 690.57C48.8248 690.712 49.4072 690.901 49.9375 691.138C50.4678 691.375 50.9271 691.666 51.3153 692.011C51.7036 692.357 52.0043 692.764 52.2173 693.233C52.4351 693.702 52.5464 694.239 52.5511 694.845C52.5464 695.735 52.3191 696.507 51.8693 697.161C51.4242 697.809 50.7803 698.313 49.9375 698.673C49.0994 699.028 48.0885 699.206 46.9048 699.206C45.7306 699.206 44.7079 699.026 43.8366 698.666C42.9702 698.306 42.2931 697.774 41.8054 697.068C41.3224 696.358 41.0691 695.48 41.0455 694.433H44.0213C44.0545 694.921 44.1941 695.328 44.4403 695.655C44.6913 695.977 45.0251 696.221 45.4418 696.386C45.8632 696.547 46.339 696.628 46.8693 696.628C47.3902 696.628 47.8423 696.552 48.2259 696.401C48.6141 696.249 48.9148 696.038 49.1278 695.768C49.3409 695.499 49.4474 695.188 49.4474 694.838C49.4474 694.511 49.3504 694.237 49.1562 694.014C48.9669 693.792 48.6875 693.602 48.3182 693.446C47.9536 693.29 47.5062 693.148 46.9759 693.02L45.392 692.622C44.1657 692.324 43.1974 691.857 42.4872 691.223C41.777 690.589 41.4242 689.734 41.429 688.659C41.4242 687.778 41.6586 687.009 42.1321 686.351C42.6103 685.693 43.2661 685.179 44.0994 684.81C44.9328 684.44 45.8797 684.256 46.9403 684.256C48.0199 684.256 48.9621 684.44 49.767 684.81C50.5767 685.179 51.2064 685.693 51.6562 686.351C52.1061 687.009 52.3381 687.771 52.3523 688.638H49.4048ZM54.6197 699V684.455H64.4208V686.99H57.695V690.456H63.9165V692.991H57.695V696.464H64.4492V699H54.6197ZM66.8658 699V684.455H72.6044C73.7076 684.455 74.6475 684.665 75.424 685.087C76.2005 685.503 76.7924 686.083 77.1996 686.827C77.6115 687.565 77.8175 688.418 77.8175 689.384C77.8175 690.349 77.6091 691.202 77.1925 691.94C76.7758 692.679 76.1721 693.254 75.3814 693.666C74.5954 694.078 73.6437 694.284 72.5263 694.284H68.8686V691.82H72.0291C72.621 691.82 73.1087 691.718 73.4922 691.514C73.8804 691.306 74.1693 691.019 74.3587 690.655C74.5528 690.286 74.6499 689.862 74.6499 689.384C74.6499 688.901 74.5528 688.479 74.3587 688.119C74.1693 687.755 73.8804 687.473 73.4922 687.274C73.1039 687.071 72.6115 686.969 72.0149 686.969H69.9411V699H66.8658ZM80.6424 699H77.3469L82.3683 684.455H86.3313L91.3455 699H88.0501L84.4066 687.778H84.293L80.6424 699ZM80.4364 693.283H88.2205V695.683H80.4364V693.283ZM82.1836 682.963C81.7764 682.963 81.426 682.821 81.1325 682.537C80.8389 682.248 80.6921 681.907 80.6921 681.514C80.6921 681.112 80.8389 680.771 81.1325 680.491C81.426 680.212 81.7764 680.072 82.1836 680.072C82.5955 680.072 82.9435 680.212 83.2276 680.491C83.5165 680.771 83.6609 681.112 83.6609 681.514C83.6609 681.907 83.5165 682.248 83.2276 682.537C82.9435 682.821 82.5955 682.963 82.1836 682.963ZM86.5302 682.963C86.123 682.963 85.7726 682.821 85.479 682.537C85.1855 682.248 85.0387 681.907 85.0387 681.514C85.0387 681.112 85.1855 680.771 85.479 680.491C85.7726 680.212 86.123 680.072 86.5302 680.072C86.9421 680.072 87.2901 680.212 87.5742 680.491C87.863 680.771 88.0075 681.112 88.0075 681.514C88.0075 681.907 87.863 682.248 87.5742 682.537C87.2901 682.821 86.9421 682.963 86.5302 682.963ZM95.6033 699H92.3079L97.3292 684.455H101.292L106.306 699H103.011L99.3675 687.778H99.2539L95.6033 699ZM95.3974 693.283H103.181V695.683H95.3974V693.283ZM97.1445 682.963C96.7373 682.963 96.387 682.821 96.0934 682.537C95.7998 682.248 95.6531 681.907 95.6531 681.514C95.6531 681.112 95.7998 680.771 96.0934 680.491C96.387 680.212 96.7373 680.072 97.1445 680.072C97.5565 680.072 97.9045 680.212 98.1886 680.491C98.4774 680.771 98.6218 681.112 98.6218 681.514C98.6218 681.907 98.4774 682.248 98.1886 682.537C97.9045 682.821 97.5565 682.963 97.1445 682.963ZM101.491 682.963C101.084 682.963 100.734 682.821 100.44 682.537C100.146 682.248 99.9996 681.907 99.9996 681.514C99.9996 681.112 100.146 680.771 100.44 680.491C100.734 680.212 101.084 680.072 101.491 680.072C101.903 680.072 102.251 680.212 102.535 680.491C102.824 680.771 102.968 681.112 102.968 681.514C102.968 681.907 102.824 682.248 102.535 682.537C102.251 682.821 101.903 682.963 101.491 682.963ZM115.616 688.638C115.559 688.065 115.315 687.62 114.884 687.303C114.453 686.985 113.869 686.827 113.13 686.827C112.628 686.827 112.204 686.898 111.859 687.04C111.513 687.177 111.248 687.369 111.063 687.615C110.883 687.861 110.793 688.141 110.793 688.453C110.784 688.714 110.838 688.941 110.957 689.135C111.08 689.329 111.248 689.497 111.461 689.639C111.674 689.777 111.92 689.897 112.2 690.001C112.479 690.101 112.777 690.186 113.094 690.257L114.401 690.57C115.036 690.712 115.618 690.901 116.148 691.138C116.679 691.375 117.138 691.666 117.526 692.011C117.915 692.357 118.215 692.764 118.428 693.233C118.646 693.702 118.757 694.239 118.762 694.845C118.757 695.735 118.53 696.507 118.08 697.161C117.635 697.809 116.991 698.313 116.148 698.673C115.31 699.028 114.299 699.206 113.116 699.206C111.942 699.206 110.919 699.026 110.048 698.666C109.181 698.306 108.504 697.774 108.016 697.068C107.533 696.358 107.28 695.48 107.256 694.433H110.232C110.265 694.921 110.405 695.328 110.651 695.655C110.902 695.977 111.236 696.221 111.653 696.386C112.074 696.547 112.55 696.628 113.08 696.628C113.601 696.628 114.053 696.552 114.437 696.401C114.825 696.249 115.126 696.038 115.339 695.768C115.552 695.499 115.658 695.188 115.658 694.838C115.658 694.511 115.561 694.237 115.367 694.014C115.178 693.792 114.898 693.602 114.529 693.446C114.165 693.29 113.717 693.148 113.187 693.02L111.603 692.622C110.377 692.324 109.408 691.857 108.698 691.223C107.988 690.589 107.635 689.734 107.64 688.659C107.635 687.778 107.87 687.009 108.343 686.351C108.821 685.693 109.477 685.179 110.31 684.81C111.144 684.44 112.091 684.256 113.151 684.256C114.231 684.256 115.173 684.44 115.978 684.81C116.788 685.179 117.417 685.693 117.867 686.351C118.317 687.009 118.549 687.771 118.563 688.638H115.616Z" fill="#FF6776"/>
</svg>
