<svg width="927" height="798" viewBox="0 0 927 798" fill="none" xmlns="http://www.w3.org/2000/svg">
<path d="M236 797.5L231 779H870L865.5 797.5H236Z" fill="white" fill-opacity="0.64"/>
<path d="M231 779L225 757.5H875.5L870 779H231Z" fill="white" fill-opacity="0.88"/>
<path d="M2.5 712.5C2.5 717 1 725 10 725H215.5L225.5 758.5L875.5 758L884 727.5H915.5C922.3 727.5 924 721.833 924 719V211H119.5V137.5H12.5C4.99993 137.5 2.50011 141 2.5 150.5C2.49803 318.757 2.49952 614.776 2.49991 693.313L2.5 712.5Z" fill="white"/>
<path d="M119.5 211V137.5V53C119.5 44.2 125.167 42.6667 128.5 43H288C295.833 29.6667 354 3 524 3C694 3 748.833 29.6667 755 43H915C921.8 43 923.833 49 924 52V211H119.5Z" fill="white"/>
<path d="M15 727.5C6 727.5 2.5 723.5 2.5 719C2.5 718.6 2.49778 342 2.50002 150.5C2.50013 141 4.99995 137.5 12.5 137.5C22.3948 137.5 87.8017 137.5 119.5 137.5M119.5 137.5V211H924M119.5 137.5C119.5 114.167 119.5 61.8 119.5 53C119.5 44.2 125.167 42.6667 128.5 43H288C295.833 29.6667 354 3 524 3C694 3 748.833 29.6667 755 43C805.5 43 908.2 43 915 43C921.8 43 923.833 49 924 52V211M924 211V719C924 721.833 922.3 727.5 915.5 727.5C908.7 727.5 891.667 727.5 884 727.5L875.5 758M107 727.5H217L225.5 758.5M226 761L229 772M230 775.5L233 786.5M234 790L235.5 795.5M874.5 761L871.5 772.5M871 774.5L867.5 787M867 789L865.5 794.5" stroke="#FF6776" stroke-width="5"/>
<path d="M62 706L84.5167 742H39.4833L62 706Z" fill="#FF6776"/>
<path d="M475.79 120.312C475.682 119.223 475.218 118.378 474.4 117.775C473.581 117.172 472.47 116.871 471.067 116.871C470.113 116.871 469.308 117.006 468.651 117.276C467.994 117.536 467.491 117.901 467.14 118.369C466.798 118.836 466.627 119.367 466.627 119.961C466.609 120.456 466.713 120.888 466.937 121.256C467.171 121.625 467.491 121.945 467.896 122.214C468.3 122.475 468.768 122.705 469.299 122.903C469.83 123.092 470.396 123.254 470.999 123.388L473.482 123.982C474.688 124.252 475.794 124.612 476.802 125.062C477.809 125.512 478.682 126.065 479.42 126.722C480.157 127.378 480.729 128.152 481.133 129.043C481.547 129.933 481.759 130.954 481.768 132.106C481.759 133.797 481.327 135.263 480.472 136.505C479.627 137.737 478.403 138.696 476.802 139.379C475.209 140.054 473.289 140.391 471.04 140.391C468.809 140.391 466.865 140.049 465.21 139.366C463.564 138.682 462.277 137.67 461.351 136.33C460.433 134.98 459.952 133.311 459.907 131.323H465.561C465.624 132.25 465.889 133.023 466.357 133.644C466.834 134.256 467.468 134.719 468.26 135.034C469.061 135.34 469.965 135.493 470.972 135.493C471.962 135.493 472.821 135.349 473.55 135.061C474.287 134.773 474.859 134.373 475.263 133.86C475.668 133.347 475.871 132.758 475.871 132.092C475.871 131.472 475.686 130.95 475.317 130.527C474.958 130.104 474.427 129.744 473.725 129.447C473.032 129.151 472.182 128.881 471.175 128.638L468.165 127.882C465.835 127.315 463.996 126.429 462.646 125.224C461.297 124.018 460.627 122.394 460.636 120.352C460.627 118.679 461.072 117.217 461.972 115.967C462.88 114.716 464.126 113.74 465.709 113.038C467.293 112.337 469.092 111.986 471.107 111.986C473.158 111.986 474.949 112.337 476.478 113.038C478.016 113.74 479.213 114.716 480.067 115.967C480.922 117.217 481.363 118.665 481.39 120.312H475.79ZM484.645 117.181V112.364H507.343V117.181H498.882V140H493.106V117.181H484.645ZM512.467 140H506.206L515.746 112.364H523.276L532.803 140H526.542L519.619 118.679H519.403L512.467 140ZM512.076 129.137H526.866V133.698H512.076V129.137ZM553.156 121.297C552.967 120.64 552.702 120.06 552.36 119.556C552.018 119.043 551.6 118.612 551.105 118.261C550.619 117.901 550.061 117.626 549.432 117.438C548.811 117.249 548.123 117.154 547.367 117.154C545.955 117.154 544.713 117.505 543.642 118.207C542.581 118.908 541.753 119.929 541.16 121.27C540.566 122.601 540.269 124.23 540.269 126.155C540.269 128.08 540.561 129.717 541.146 131.067C541.731 132.416 542.558 133.446 543.629 134.157C544.7 134.859 545.964 135.21 547.421 135.21C548.743 135.21 549.872 134.976 550.808 134.508C551.753 134.031 552.472 133.361 552.967 132.497C553.471 131.634 553.723 130.612 553.723 129.434L554.91 129.609H547.785V125.21H559.35V128.692C559.35 131.121 558.837 133.208 557.812 134.953C556.786 136.689 555.374 138.03 553.574 138.974C551.775 139.91 549.715 140.378 547.394 140.378C544.803 140.378 542.527 139.807 540.566 138.664C538.605 137.513 537.075 135.88 535.978 133.766C534.889 131.643 534.345 129.124 534.345 126.209C534.345 123.969 534.669 121.972 535.316 120.217C535.973 118.454 536.891 116.961 538.069 115.737C539.248 114.514 540.62 113.583 542.185 112.944C543.75 112.305 545.446 111.986 547.272 111.986C548.838 111.986 550.295 112.215 551.645 112.674C552.994 113.124 554.191 113.763 555.234 114.59C556.287 115.418 557.146 116.403 557.812 117.545C558.477 118.679 558.905 119.929 559.093 121.297H553.156ZM563.739 140V112.364H582.361V117.181H569.582V123.766H581.403V128.584H569.582V135.183H582.415V140H563.739Z" fill="#FF6776"/>
<path d="M433.481 755H427.22L436.76 727.364H444.29L453.817 755H447.555L440.633 733.679H440.417L433.481 755ZM433.09 744.137H447.879V748.698H433.09V744.137ZM474.214 727.364H480.057V745.311C480.057 747.326 479.575 749.089 478.613 750.601C477.659 752.112 476.323 753.291 474.605 754.136C472.887 754.973 470.885 755.391 468.6 755.391C466.306 755.391 464.3 754.973 462.581 754.136C460.863 753.291 459.527 752.112 458.574 750.601C457.62 749.089 457.143 747.326 457.143 745.311V727.364H462.986V744.812C462.986 745.864 463.216 746.8 463.674 747.619C464.142 748.437 464.799 749.08 465.645 749.548C466.49 750.016 467.475 750.25 468.6 750.25C469.733 750.25 470.718 750.016 471.555 749.548C472.401 749.08 473.053 748.437 473.512 747.619C473.98 746.8 474.214 745.864 474.214 744.812V727.364ZM494.661 755H484.864V727.364H494.742C497.522 727.364 499.915 727.917 501.921 729.023C503.927 730.121 505.47 731.7 506.549 733.76C507.638 735.82 508.182 738.285 508.182 741.155C508.182 744.034 507.638 746.508 506.549 748.577C505.47 750.646 503.918 752.234 501.894 753.34C499.879 754.447 497.468 755 494.661 755ZM490.707 749.994H494.418C496.145 749.994 497.598 749.688 498.777 749.076C499.964 748.455 500.855 747.497 501.448 746.202C502.051 744.897 502.353 743.215 502.353 741.155C502.353 739.113 502.051 737.444 501.448 736.148C500.855 734.853 499.969 733.899 498.79 733.288C497.612 732.676 496.159 732.37 494.431 732.37H490.707V749.994ZM518.353 727.364V755H512.51V727.364H518.353ZM522.108 732.181V727.364H544.806V732.181H536.345V755H530.569V732.181H522.108ZM572.678 741.182C572.678 744.196 572.107 746.759 570.964 748.874C569.831 750.988 568.284 752.603 566.322 753.718C564.37 754.825 562.175 755.378 559.737 755.378C557.281 755.378 555.077 754.82 553.125 753.705C551.173 752.589 549.63 750.974 548.496 748.86C547.363 746.746 546.796 744.187 546.796 741.182C546.796 738.168 547.363 735.604 548.496 733.49C549.63 731.376 551.173 729.766 553.125 728.659C555.077 727.544 557.281 726.986 559.737 726.986C562.175 726.986 564.37 727.544 566.322 728.659C568.284 729.766 569.831 731.376 570.964 733.49C572.107 735.604 572.678 738.168 572.678 741.182ZM566.754 741.182C566.754 739.23 566.462 737.583 565.877 736.243C565.301 734.902 564.487 733.886 563.435 733.193C562.382 732.5 561.15 732.154 559.737 732.154C558.325 732.154 557.092 732.5 556.04 733.193C554.987 733.886 554.168 734.902 553.584 736.243C553.008 737.583 552.72 739.23 552.72 741.182C552.72 743.134 553.008 744.78 553.584 746.121C554.168 747.461 554.987 748.478 556.04 749.17C557.092 749.863 558.325 750.21 559.737 750.21C561.15 750.21 562.382 749.863 563.435 749.17C564.487 748.478 565.301 747.461 565.877 746.121C566.462 744.78 566.754 743.134 566.754 741.182ZM577.006 755V727.364H587.91C589.997 727.364 591.778 727.737 593.254 728.484C594.738 729.221 595.867 730.269 596.641 731.628C597.423 732.977 597.815 734.565 597.815 736.391C597.815 738.227 597.419 739.805 596.627 741.128C595.836 742.441 594.689 743.449 593.186 744.151C591.693 744.852 589.885 745.203 587.761 745.203H580.461V740.507H586.817C587.932 740.507 588.859 740.354 589.597 740.048C590.334 739.742 590.883 739.284 591.243 738.672C591.612 738.06 591.796 737.3 591.796 736.391C591.796 735.474 591.612 734.7 591.243 734.07C590.883 733.441 590.33 732.964 589.583 732.64C588.845 732.307 587.914 732.141 586.79 732.141H582.85V755H577.006ZM591.931 742.423L598.8 755H592.35L585.629 742.423H591.931ZM607.787 727.364V755H601.944V727.364H607.787ZM629.665 727.364H635.508V745.311C635.508 747.326 635.026 749.089 634.064 750.601C633.11 752.112 631.774 753.291 630.056 754.136C628.338 754.973 626.336 755.391 624.051 755.391C621.757 755.391 619.751 754.973 618.033 754.136C616.314 753.291 614.978 752.112 614.025 750.601C613.071 749.089 612.594 747.326 612.594 745.311V727.364H618.437V744.812C618.437 745.864 618.667 746.8 619.126 747.619C619.593 748.437 620.25 749.08 621.096 749.548C621.941 750.016 622.927 750.25 624.051 750.25C625.185 750.25 626.17 750.016 627.006 749.548C627.852 749.08 628.504 748.437 628.963 747.619C629.431 746.8 629.665 745.864 629.665 744.812V727.364ZM640.315 727.364H647.521L655.132 745.932H655.456L663.066 727.364H670.272V755H664.605V737.012H664.375L657.223 754.865H653.364L646.212 736.945H645.983V755H640.315V727.364Z" fill="#FF6776"/>
<path d="M10.5689 699V684.455H20.37V686.99H13.6442V690.456H19.8658V692.991H13.6442V696.464H20.3984V699H10.5689ZM34.9812 684.455V699H32.3249L25.9968 689.845H25.8903V699H22.815V684.455H25.5138L31.7923 693.602H31.9201V684.455H34.9812ZM36.968 686.99V684.455H48.9141V686.99H44.4609V699H41.4212V686.99H36.968ZM50.8814 699V684.455H56.62C57.7185 684.455 58.656 684.651 59.4325 685.044C60.2138 685.432 60.808 685.984 61.2152 686.699C61.6271 687.409 61.8331 688.245 61.8331 689.206C61.8331 690.172 61.6248 691.003 61.2081 691.699C60.7914 692.39 60.1877 692.92 59.397 693.29C58.611 693.659 57.6593 693.844 56.5419 693.844H52.6996V691.372H56.0447C56.6319 691.372 57.1196 691.292 57.5078 691.131C57.8961 690.97 58.1849 690.728 58.3743 690.406C58.5684 690.084 58.6655 689.684 58.6655 689.206C58.6655 688.723 58.5684 688.316 58.3743 687.984C58.1849 687.653 57.8937 687.402 57.5007 687.232C57.1125 687.056 56.6224 686.969 56.0305 686.969H53.9567V699H50.8814ZM58.7365 692.381L62.3516 699H58.9567L55.4197 692.381H58.7365ZM66.5135 699H63.218L68.2393 684.455H72.2024L77.2166 699H73.9212L70.2777 687.778H70.1641L66.5135 699ZM66.3075 693.283H74.0916V695.683H66.3075V693.283ZM91.1335 684.455V699H88.4773L82.1491 689.845H82.0426V699H78.9673V684.455H81.6662L87.9446 693.602H88.0724V684.455H91.1335ZM106.508 689.547H103.397C103.341 689.144 103.225 688.787 103.049 688.474C102.874 688.157 102.649 687.887 102.375 687.665C102.1 687.442 101.783 687.272 101.423 687.153C101.068 687.035 100.682 686.976 100.265 686.976C99.5124 686.976 98.8567 687.163 98.2979 687.537C97.7392 687.906 97.306 688.446 96.9982 689.156C96.6905 689.862 96.5366 690.719 96.5366 691.727C96.5366 692.764 96.6905 693.635 96.9982 694.341C97.3107 695.046 97.7463 695.579 98.305 695.939C98.8638 696.299 99.5101 696.479 100.244 696.479C100.656 696.479 101.037 696.424 101.387 696.315C101.743 696.206 102.057 696.048 102.332 695.839C102.607 695.626 102.834 695.368 103.014 695.065C103.199 694.762 103.326 694.417 103.397 694.028L106.508 694.043C106.428 694.71 106.226 695.354 105.904 695.974C105.587 696.59 105.159 697.142 104.619 697.629C104.084 698.112 103.445 698.496 102.701 698.78C101.963 699.059 101.127 699.199 100.194 699.199C98.8969 699.199 97.7369 698.905 96.7141 698.318C95.6961 697.731 94.8912 696.881 94.2994 695.768C93.7122 694.656 93.4187 693.309 93.4187 691.727C93.4187 690.141 93.717 688.792 94.3136 687.679C94.9102 686.566 95.7198 685.719 96.7425 685.136C97.7653 684.549 98.9158 684.256 100.194 684.256C101.037 684.256 101.818 684.374 102.538 684.611C103.262 684.848 103.904 685.193 104.463 685.648C105.021 686.098 105.476 686.649 105.826 687.303C106.181 687.956 106.409 688.704 106.508 689.547ZM108.713 699V684.455H118.515V686.99H111.789V690.456H118.01V692.991H111.789V696.464H118.543V699H108.713Z" fill="#FF6776"/>
</svg>
