<?xml version="1.0" encoding="UTF-8"?>
<svg id="Layer_1" data-name="Layer 1" xmlns="http://www.w3.org/2000/svg" viewBox="0 0 678.23 249.04">
  <defs>
    <style>
      .cls-1, .cls-2 {
        fill: #fff;
      }

      .cls-2 {
        opacity: .44;
      }
    </style>
  </defs>
  <g>
    <path class="cls-1" d="m-.23,1.73h53.05c8.14,0,14.68,2.3,19.64,6.88,4.95,4.59,7.43,10.64,7.43,18.15v16.12c0,8.03-2.66,14.53-7.98,19.48-5.32,4.96-12.31,7.43-20.97,7.43H11.35v41.47H-.23V1.73Zm50.85,57.74c5.32,0,9.6-1.54,12.83-4.62,3.23-3.08,4.85-7.17,4.85-12.28v-16.12c0-4.28-1.44-7.75-4.3-10.41-2.87-2.66-6.7-3.99-11.5-3.99H11.35v47.41h39.28Z"/>
    <path class="cls-1" d="m96.78,33.18h10.95v12.05c2.09-3.65,5.24-6.62,9.47-8.92,4.22-2.29,8.63-3.44,13.22-3.44h6.89v10.17h-6.89c-6.68,0-12.08,2.11-16.2,6.34-4.12,4.22-6.18,9.83-6.18,16.82v45.06h-11.27V33.18Z"/>
    <path class="cls-1" d="m154.13,106.57c-4.54-3.96-6.81-9.28-6.81-15.96v-5.01c0-6.57,2.35-11.84,7.04-15.8,4.69-3.96,10.9-5.95,18.62-5.95h10.01c3.44,0,6.99.52,10.64,1.56,3.65,1.04,6.78,2.45,9.39,4.22v-12.99c0-4.38-1.36-7.95-4.07-10.72-2.71-2.76-6.31-4.15-10.8-4.15h-12.52c-4.49,0-8.08,1.04-10.8,3.13-2.71,2.09-4.07,4.85-4.07,8.29h-11.27c0-6.36,2.4-11.5,7.2-15.41,4.8-3.91,11.11-5.87,18.93-5.87h12.52c7.72,0,13.95,2.27,18.7,6.81,4.75,4.54,7.12,10.51,7.12,17.92v54.61h-10.64v-10.95c-2.4,3.76-5.56,6.73-9.47,8.92-3.91,2.19-7.96,3.29-12.13,3.29h-9.39c-7.62,0-13.69-1.98-18.23-5.95Zm27.93-3.91c4.9,0,9.28-1.51,13.14-4.54,3.86-3.02,6.47-7.04,7.82-12.05v-5.79c-2.09-1.98-4.98-3.57-8.68-4.77-3.7-1.2-7.49-1.8-11.34-1.8h-10.01c-4.28,0-7.75,1.1-10.41,3.29-2.66,2.19-3.99,5.06-3.99,8.61v5.01c0,3.65,1.25,6.57,3.76,8.76,2.5,2.19,5.84,3.29,10.01,3.29h9.7Z"/>
    <path class="cls-1" d="m289.56,111.26l-30.67-36.93-10.8,10.8v26.13h-11.27V1.73h11.27v69.63l38.65-38.18h13.77l-33.8,33.49,36.3,44.6h-13.46Z"/>
    <path class="cls-1" d="m329.69,105.94c-3.6-3.55-5.4-9.39-5.4-17.53v-45.22h-13.77v-10.01h13.77V9.56h11.27v23.63h20.34v10.01h-20.34v45.22c0,4.59.91,7.88,2.74,9.86,1.82,1.98,4.88,2.97,9.15,2.97h8.45v10.01h-8.45c-8.24,0-14.16-1.77-17.76-5.32Z"/>
    <path class="cls-1" d="m378.9,19.1c-1.57-1.56-2.35-3.6-2.35-6.1s.78-4.54,2.35-6.1c1.56-1.56,3.6-2.35,6.1-2.35s4.54.78,6.1,2.35c1.56,1.56,2.35,3.6,2.35,6.1s-.78,4.54-2.35,6.1-3.6,2.35-6.1,2.35-4.54-.78-6.1-2.35Zm.47,14.08h11.27v78.08h-11.27V33.18Z"/>
    <path class="cls-1" d="m469.97,111.26l-30.67-36.93-10.8,10.8v26.13h-11.27V1.73h11.27v69.63l38.65-38.18h13.77l-33.8,33.49,36.3,44.6h-13.46Z"/>
    <path class="cls-1" d="m498.05,106.57c-4.54-3.96-6.81-9.28-6.81-15.96v-5.01c0-6.57,2.35-11.84,7.04-15.8,4.69-3.96,10.9-5.95,18.62-5.95h10.01c3.44,0,6.99.52,10.64,1.56,3.65,1.04,6.78,2.45,9.39,4.22v-12.99c0-4.38-1.36-7.95-4.07-10.72-2.71-2.76-6.31-4.15-10.8-4.15h-12.52c-4.49,0-8.09,1.04-10.8,3.13-2.71,2.09-4.07,4.85-4.07,8.29h-11.27c0-6.36,2.4-11.5,7.2-15.41,4.8-3.91,11.11-5.87,18.93-5.87h12.52c7.72,0,13.95,2.27,18.7,6.81,4.75,4.54,7.12,10.51,7.12,17.92v54.61h-10.64v-10.95c-2.4,3.76-5.56,6.73-9.47,8.92-3.91,2.19-7.96,3.29-12.13,3.29h-9.39c-7.62,0-13.69-1.98-18.23-5.95Zm27.93-3.91c4.9,0,9.28-1.51,13.14-4.54,3.86-3.02,6.47-7.04,7.82-12.05v-5.79c-2.09-1.98-4.98-3.57-8.68-4.77-3.7-1.2-7.49-1.8-11.34-1.8h-10.01c-4.28,0-7.75,1.1-10.41,3.29-2.66,2.19-3.99,5.06-3.99,8.61v5.01c0,3.65,1.25,6.57,3.76,8.76,2.5,2.19,5.84,3.29,10.01,3.29h9.7Z"/>
  </g>
  <path class="cls-1" d="m343.64,166.22h-9.86v-.72c.01-3.74-2.1-7.16-5.45-8.82l-13.23-6.62c-6.7-3.32-10.93-10.17-10.9-17.64v-5.65h9.86v5.65c-.01,3.74,2.1,7.16,5.45,8.82l13.23,6.62c6.7,3.32,10.93,10.17,10.9,17.64v.72Z"/>
  <path class="cls-1" d="m370.76,175.07h-81.37c-5.45,0-9.86,4.42-9.86,9.86v39.45c.02,13.61,11.05,24.64,24.66,24.66h39.45c13.61-.02,24.64-11.05,24.66-24.66v-4.93h2.47c12.26,0,22.19-9.94,22.19-22.19s-9.94-22.19-22.19-22.19Zm-12.33,49.32c0,8.17-6.63,14.79-14.8,14.8h-39.45c-8.17,0-14.79-6.63-14.8-14.8v-39.45h69.04v39.45Zm12.33-14.8h-2.47v-24.66h2.47c6.81,0,12.33,5.52,12.33,12.33s-5.52,12.33-12.33,12.33Z"/>
  <g>
    <path class="cls-1" d="m255.76,249.3l-30.67-36.93-10.8,10.8v26.13h-11.27l.12-146.96,10.72,6.43.42,100.62,38.65-38.18h13.77l-33.8,33.49,36.3,44.6h-13.46Z"/>
    <path class="cls-1" d="m405.03,139.77h11.27v42.25c2.4-3.65,5.48-6.57,9.23-8.76,3.76-2.19,7.56-3.29,11.42-3.29h10.95c7.2,0,13.01,2.45,17.45,7.35,4.43,4.9,6.65,11.32,6.65,19.25v52.73h-11.27v-53.05c0-4.8-1.2-8.71-3.6-11.74-2.4-3.02-5.58-4.54-9.54-4.54h-10.33c-4.9,0-9.36,1.9-13.38,5.71-4.02,3.81-6.55,8.68-7.59,14.63v48.98h-11.27v-109.53Z"/>
    <path class="cls-1" d="m511.74,241.32l-26.91-70.1h11.89l24.1,65.72h.16l24.1-65.72h11.89l-30.36,78.08h-5.32c-4.38,0-7.56-2.66-9.54-7.98Z"/>
    <path class="cls-1" d="m573.71,157.14c-1.57-1.56-2.35-3.6-2.35-6.1s.78-4.54,2.35-6.1c1.56-1.56,3.6-2.35,6.1-2.35s4.54.78,6.1,2.35c1.56,1.56,2.35,3.6,2.35,6.1s-.78,4.54-2.35,6.1c-1.57,1.56-3.6,2.35-6.1,2.35s-4.54-.78-6.1-2.35Zm.47,14.08h11.27v78.08h-11.27v-78.08Z"/>
    <path class="cls-1" d="m664.78,249.3l-30.67-36.93-10.8,10.8v26.13h-11.27v-109.53h11.27v69.63l38.65-38.18h13.77l-33.8,33.49,36.3,44.6h-13.46Z"/>
  </g>
  <g>
    <path class="cls-1" d="m0,1.77h53.05c8.14,0,14.68,2.3,19.64,6.88,4.95,4.59,7.43,10.64,7.43,18.15v16.12c0,8.03-2.66,14.53-7.98,19.48-5.32,4.96-12.31,7.43-20.97,7.43H11.58v41.47H0V1.77Zm50.85,57.74c5.32,0,9.6-1.54,12.83-4.62,3.23-3.08,4.85-7.17,4.85-12.28v-16.12c0-4.28-1.44-7.75-4.3-10.41-2.87-2.66-6.7-3.99-11.5-3.99H11.58v47.41h39.28Z"/>
    <path class="cls-1" d="m97.01,33.22h10.95v12.05c2.09-3.65,5.24-6.62,9.47-8.92,4.22-2.29,8.63-3.44,13.22-3.44h6.89v10.17h-6.89c-6.68,0-12.08,2.11-16.2,6.34-4.12,4.22-6.18,9.83-6.18,16.82v45.06h-11.27V33.22Z"/>
    <path class="cls-1" d="m154.36,106.61c-4.54-3.96-6.81-9.28-6.81-15.96v-5.01c0-6.57,2.35-11.84,7.04-15.8,4.69-3.96,10.9-5.95,18.62-5.95h10.01c3.44,0,6.99.52,10.64,1.56,3.65,1.04,6.78,2.45,9.39,4.22v-12.99c0-4.38-1.36-7.95-4.07-10.72-2.71-2.76-6.31-4.15-10.8-4.15h-12.52c-4.49,0-8.08,1.04-10.8,3.13-2.71,2.09-4.07,4.85-4.07,8.29h-11.27c0-6.36,2.4-11.5,7.2-15.41,4.8-3.91,11.11-5.87,18.93-5.87h12.52c7.72,0,13.95,2.27,18.7,6.81,4.75,4.54,7.12,10.51,7.12,17.92v54.61h-10.64v-10.95c-2.4,3.76-5.56,6.73-9.47,8.92-3.91,2.19-7.96,3.29-12.13,3.29h-9.39c-7.62,0-13.69-1.98-18.23-5.95Zm27.93-3.91c4.9,0,9.28-1.51,13.14-4.54,3.86-3.02,6.47-7.04,7.82-12.05v-5.79c-2.09-1.98-4.98-3.57-8.68-4.77-3.7-1.2-7.49-1.8-11.34-1.8h-10.01c-4.28,0-7.75,1.1-10.41,3.29-2.66,2.19-3.99,5.06-3.99,8.61v5.01c0,3.65,1.25,6.57,3.76,8.76,2.5,2.19,5.84,3.29,10.01,3.29h9.7Z"/>
    <path class="cls-1" d="m289.79,111.3l-30.67-36.93-10.8,10.8v26.13h-11.27V1.77h11.27v69.63l38.65-38.18h13.77l-33.8,33.49,36.3,44.6h-13.46Z"/>
    <path class="cls-1" d="m329.92,105.98c-3.6-3.55-5.4-9.39-5.4-17.53v-45.22h-13.77v-10.01h13.77V9.6h11.27v23.63h20.34v10.01h-20.34v45.22c0,4.59.91,7.88,2.74,9.86,1.82,1.98,4.88,2.97,9.15,2.97h8.45v10.01h-8.45c-8.24,0-14.16-1.77-17.76-5.32Z"/>
    <path class="cls-1" d="m379.13,19.14c-1.57-1.56-2.35-3.6-2.35-6.1s.78-4.54,2.35-6.1c1.56-1.56,3.6-2.35,6.1-2.35s4.54.78,6.1,2.35,2.35,3.6,2.35,6.1-.78,4.54-2.35,6.1-3.6,2.35-6.1,2.35-4.54-.78-6.1-2.35Zm.47,14.08h11.27v78.08h-11.27V33.22Z"/>
    <path class="cls-1" d="m470.2,111.3l-30.67-36.93-10.8,10.8v26.13h-11.27V1.77h11.27v69.63l38.65-38.18h13.77l-33.8,33.49,36.3,44.6h-13.46Z"/>
    <path class="cls-1" d="m498.29,106.61c-4.54-3.96-6.81-9.28-6.81-15.96v-5.01c0-6.57,2.35-11.84,7.04-15.8,4.69-3.96,10.9-5.95,18.62-5.95h10.01c3.44,0,6.99.52,10.64,1.56,3.65,1.04,6.78,2.45,9.39,4.22v-12.99c0-4.38-1.36-7.95-4.07-10.72-2.71-2.76-6.31-4.15-10.8-4.15h-12.52c-4.49,0-8.09,1.04-10.8,3.13-2.71,2.09-4.07,4.85-4.07,8.29h-11.27c0-6.36,2.4-11.5,7.2-15.41,4.8-3.91,11.11-5.87,18.93-5.87h12.52c7.72,0,13.95,2.27,18.7,6.81,4.75,4.54,7.12,10.51,7.12,17.92v54.61h-10.64v-10.95c-2.4,3.76-5.56,6.73-9.47,8.92-3.91,2.19-7.96,3.29-12.13,3.29h-9.39c-7.62,0-13.69-1.98-18.23-5.95Zm27.93-3.91c4.9,0,9.28-1.51,13.14-4.54,3.86-3.02,6.47-7.04,7.82-12.05v-5.79c-2.09-1.98-4.98-3.57-8.68-4.77-3.7-1.2-7.49-1.8-11.34-1.8h-10.01c-4.28,0-7.75,1.1-10.41,3.29-2.66,2.19-3.99,5.06-3.99,8.61v5.01c0,3.65,1.25,6.57,3.76,8.76,2.5,2.19,5.84,3.29,10.01,3.29h9.7Z"/>
  </g>
  <path class="cls-2" d="m286.08,200.1s8.03-2.6,18.09-2.83,20.72,6.03,26.22,9.45c3.56,2.21,14.64,10.79,30.14-1.91,0,0,7.73,32.86-13.63,35.44-10.32,1.25-33.41.58-44.87-.14-11.46-.72-15.6-3.45-15.95-8.96-.36-5.51,0-31.05,0-31.05Z"/>
</svg>