<svg width="927" height="798" viewBox="0 0 927 798" fill="none" xmlns="http://www.w3.org/2000/svg">
<path d="M236 797.5L231 779H870L865.5 797.5H236Z" fill="white" fill-opacity="0.64"/>
<path d="M231 779L225 757.5H875.5L870 779H231Z" fill="white" fill-opacity="0.88"/>
<path d="M2.5 712.5C2.5 717 1 725 10 725H215.5L225.5 758.5L875.5 758L884 727.5H915.5C922.3 727.5 924 721.833 924 719V211H119.5V137.5H12.5C4.99993 137.5 2.50011 141 2.5 150.5C2.49803 318.757 2.49952 614.776 2.49991 693.313L2.5 712.5Z" fill="white"/>
<path d="M119.5 211V137.5V53C119.5 44.2 125.167 42.6667 128.5 43H288C295.833 29.6667 354 3 524 3C694 3 748.833 29.6667 755 43H915C921.8 43 923.833 49 924 52V211H119.5Z" fill="white"/>
<path d="M15 727.5C6 727.5 2.5 723.5 2.5 719C2.5 718.6 2.49778 342 2.50002 150.5C2.50013 141 4.99995 137.5 12.5 137.5C22.3948 137.5 87.8017 137.5 119.5 137.5M119.5 137.5V211H924M119.5 137.5C119.5 114.167 119.5 61.8 119.5 53C119.5 44.2 125.167 42.6667 128.5 43H288C295.833 29.6667 354 3 524 3C694 3 748.833 29.6667 755 43C805.5 43 908.2 43 915 43C921.8 43 923.833 49 924 52V211M924 211V719C924 721.833 922.3 727.5 915.5 727.5C908.7 727.5 891.667 727.5 884 727.5L875.5 758M107 727.5H217L225.5 758.5M226 761L229 772M230 775.5L233 786.5M234 790L235.5 795.5M874.5 761L871.5 772.5M871 774.5L867.5 787M867 789L865.5 794.5" stroke="#FF6776" stroke-width="5"/>
<path d="M62 706L84.5167 742H39.4833L62 706Z" fill="#FF6776"/>
<path d="M475.79 120.312C475.682 119.223 475.218 118.378 474.4 117.775C473.581 117.172 472.47 116.871 471.067 116.871C470.113 116.871 469.308 117.006 468.651 117.276C467.994 117.536 467.491 117.901 467.14 118.369C466.798 118.836 466.627 119.367 466.627 119.961C466.609 120.456 466.713 120.888 466.937 121.256C467.171 121.625 467.491 121.945 467.896 122.214C468.3 122.475 468.768 122.705 469.299 122.903C469.83 123.092 470.396 123.254 470.999 123.388L473.482 123.982C474.688 124.252 475.794 124.612 476.802 125.062C477.809 125.512 478.682 126.065 479.42 126.722C480.157 127.378 480.729 128.152 481.133 129.043C481.547 129.933 481.759 130.954 481.768 132.106C481.759 133.797 481.327 135.263 480.472 136.505C479.627 137.737 478.403 138.696 476.802 139.379C475.209 140.054 473.289 140.391 471.04 140.391C468.809 140.391 466.865 140.049 465.21 139.366C463.564 138.682 462.277 137.67 461.351 136.33C460.433 134.98 459.952 133.311 459.907 131.323H465.561C465.624 132.25 465.889 133.023 466.357 133.644C466.834 134.256 467.468 134.719 468.26 135.034C469.061 135.34 469.965 135.493 470.972 135.493C471.962 135.493 472.821 135.349 473.55 135.061C474.287 134.773 474.859 134.373 475.263 133.86C475.668 133.347 475.871 132.758 475.871 132.092C475.871 131.472 475.686 130.95 475.317 130.527C474.958 130.104 474.427 129.744 473.725 129.447C473.032 129.151 472.182 128.881 471.175 128.638L468.165 127.882C465.835 127.315 463.996 126.429 462.646 125.224C461.297 124.018 460.627 122.394 460.636 120.352C460.627 118.679 461.072 117.217 461.972 115.967C462.88 114.716 464.126 113.74 465.709 113.038C467.293 112.337 469.092 111.986 471.107 111.986C473.158 111.986 474.949 112.337 476.478 113.038C478.016 113.74 479.213 114.716 480.067 115.967C480.922 117.217 481.363 118.665 481.39 120.312H475.79ZM484.645 117.181V112.364H507.343V117.181H498.882V140H493.106V117.181H484.645ZM512.467 140H506.206L515.746 112.364H523.276L532.803 140H526.542L519.619 118.679H519.403L512.467 140ZM512.076 129.137H526.866V133.698H512.076V129.137ZM553.156 121.297C552.967 120.64 552.702 120.06 552.36 119.556C552.018 119.043 551.6 118.612 551.105 118.261C550.619 117.901 550.061 117.626 549.432 117.438C548.811 117.249 548.123 117.154 547.367 117.154C545.955 117.154 544.713 117.505 543.642 118.207C542.581 118.908 541.753 119.929 541.16 121.27C540.566 122.601 540.269 124.23 540.269 126.155C540.269 128.08 540.561 129.717 541.146 131.067C541.731 132.416 542.558 133.446 543.629 134.157C544.7 134.859 545.964 135.21 547.421 135.21C548.743 135.21 549.872 134.976 550.808 134.508C551.753 134.031 552.472 133.361 552.967 132.497C553.471 131.634 553.723 130.612 553.723 129.434L554.91 129.609H547.785V125.21H559.35V128.692C559.35 131.121 558.837 133.208 557.812 134.953C556.786 136.689 555.374 138.03 553.574 138.974C551.775 139.91 549.715 140.378 547.394 140.378C544.803 140.378 542.527 139.807 540.566 138.664C538.605 137.513 537.075 135.88 535.978 133.766C534.889 131.643 534.345 129.124 534.345 126.209C534.345 123.969 534.669 121.972 535.316 120.217C535.973 118.454 536.891 116.961 538.069 115.737C539.248 114.514 540.62 113.583 542.185 112.944C543.75 112.305 545.446 111.986 547.272 111.986C548.838 111.986 550.295 112.215 551.645 112.674C552.994 113.124 554.191 113.763 555.234 114.59C556.287 115.418 557.146 116.403 557.812 117.545C558.477 118.679 558.905 119.929 559.093 121.297H553.156ZM563.739 140V112.364H582.361V117.181H569.582V123.766H581.403V128.584H569.582V135.183H582.415V140H563.739Z" fill="#FF6776"/>
<path d="M433.481 755H427.22L436.76 727.364H444.29L453.817 755H447.555L440.633 733.679H440.417L433.481 755ZM433.09 744.137H447.879V748.698H433.09V744.137ZM474.214 727.364H480.057V745.311C480.057 747.326 479.575 749.089 478.613 750.601C477.659 752.112 476.323 753.291 474.605 754.136C472.887 754.973 470.885 755.391 468.6 755.391C466.306 755.391 464.3 754.973 462.581 754.136C460.863 753.291 459.527 752.112 458.574 750.601C457.62 749.089 457.143 747.326 457.143 745.311V727.364H462.986V744.812C462.986 745.864 463.216 746.8 463.674 747.619C464.142 748.437 464.799 749.08 465.645 749.548C466.49 750.016 467.475 750.25 468.6 750.25C469.733 750.25 470.718 750.016 471.555 749.548C472.401 749.08 473.053 748.437 473.512 747.619C473.98 746.8 474.214 745.864 474.214 744.812V727.364ZM494.661 755H484.864V727.364H494.742C497.522 727.364 499.915 727.917 501.921 729.023C503.927 730.121 505.47 731.7 506.549 733.76C507.638 735.82 508.182 738.285 508.182 741.155C508.182 744.034 507.638 746.508 506.549 748.577C505.47 750.646 503.918 752.234 501.894 753.34C499.879 754.447 497.468 755 494.661 755ZM490.707 749.994H494.418C496.145 749.994 497.598 749.688 498.777 749.076C499.964 748.455 500.855 747.497 501.448 746.202C502.051 744.897 502.353 743.215 502.353 741.155C502.353 739.113 502.051 737.444 501.448 736.148C500.855 734.853 499.969 733.899 498.79 733.288C497.612 732.676 496.159 732.37 494.431 732.37H490.707V749.994ZM518.353 727.364V755H512.51V727.364H518.353ZM522.108 732.181V727.364H544.806V732.181H536.345V755H530.569V732.181H522.108ZM572.678 741.182C572.678 744.196 572.107 746.759 570.964 748.874C569.831 750.988 568.284 752.603 566.322 753.718C564.37 754.825 562.175 755.378 559.737 755.378C557.281 755.378 555.077 754.82 553.125 753.705C551.173 752.589 549.63 750.974 548.496 748.86C547.363 746.746 546.796 744.187 546.796 741.182C546.796 738.168 547.363 735.604 548.496 733.49C549.63 731.376 551.173 729.766 553.125 728.659C555.077 727.544 557.281 726.986 559.737 726.986C562.175 726.986 564.37 727.544 566.322 728.659C568.284 729.766 569.831 731.376 570.964 733.49C572.107 735.604 572.678 738.168 572.678 741.182ZM566.754 741.182C566.754 739.23 566.462 737.583 565.877 736.243C565.301 734.902 564.487 733.886 563.435 733.193C562.382 732.5 561.15 732.154 559.737 732.154C558.325 732.154 557.092 732.5 556.04 733.193C554.987 733.886 554.168 734.902 553.584 736.243C553.008 737.583 552.72 739.23 552.72 741.182C552.72 743.134 553.008 744.78 553.584 746.121C554.168 747.461 554.987 748.478 556.04 749.17C557.092 749.863 558.325 750.21 559.737 750.21C561.15 750.21 562.382 749.863 563.435 749.17C564.487 748.478 565.301 747.461 565.877 746.121C566.462 744.78 566.754 743.134 566.754 741.182ZM577.006 755V727.364H587.91C589.997 727.364 591.778 727.737 593.254 728.484C594.738 729.221 595.867 730.269 596.641 731.628C597.423 732.977 597.815 734.565 597.815 736.391C597.815 738.227 597.419 739.805 596.627 741.128C595.836 742.441 594.689 743.449 593.186 744.151C591.693 744.852 589.885 745.203 587.761 745.203H580.461V740.507H586.817C587.932 740.507 588.859 740.354 589.597 740.048C590.334 739.742 590.883 739.284 591.243 738.672C591.612 738.06 591.796 737.3 591.796 736.391C591.796 735.474 591.612 734.7 591.243 734.07C590.883 733.441 590.33 732.964 589.583 732.64C588.845 732.307 587.914 732.141 586.79 732.141H582.85V755H577.006ZM591.931 742.423L598.8 755H592.35L585.629 742.423H591.931ZM607.787 727.364V755H601.944V727.364H607.787ZM629.665 727.364H635.508V745.311C635.508 747.326 635.026 749.089 634.064 750.601C633.11 752.112 631.774 753.291 630.056 754.136C628.338 754.973 626.336 755.391 624.051 755.391C621.757 755.391 619.751 754.973 618.033 754.136C616.314 753.291 614.978 752.112 614.025 750.601C613.071 749.089 612.594 747.326 612.594 745.311V727.364H618.437V744.812C618.437 745.864 618.667 746.8 619.126 747.619C619.593 748.437 620.25 749.08 621.096 749.548C621.941 750.016 622.927 750.25 624.051 750.25C625.185 750.25 626.17 750.016 627.006 749.548C627.852 749.08 628.504 748.437 628.963 747.619C629.431 746.8 629.665 745.864 629.665 744.812V727.364ZM640.315 727.364H647.521L655.132 745.932H655.456L663.066 727.364H670.272V755H664.605V737.012H664.375L657.223 754.865H653.364L646.212 736.945H645.983V755H640.315V727.364Z" fill="#FF6776"/>
<path d="M10.5689 699V684.455H20.37V686.99H13.6442V690.456H19.8658V692.991H13.6442V696.464H20.3984V699H10.5689ZM34.9812 684.455V699H32.3249L25.9968 689.845H25.8903V699H22.815V684.455H25.5138L31.7923 693.602H31.9201V684.455H34.9812ZM36.968 686.99V684.455H48.9141V686.99H44.4609V699H41.4212V686.99H36.968ZM50.8814 699V684.455H56.62C57.7185 684.455 58.656 684.651 59.4325 685.044C60.2138 685.432 60.808 685.984 61.2152 686.699C61.6271 687.409 61.8331 688.245 61.8331 689.206C61.8331 690.172 61.6248 691.003 61.2081 691.699C60.7914 692.39 60.1877 692.92 59.397 693.29C58.611 693.659 57.6593 693.844 56.5419 693.844H52.6996V691.372H56.0447C56.6319 691.372 57.1196 691.292 57.5078 691.131C57.8961 690.97 58.1849 690.728 58.3743 690.406C58.5684 690.084 58.6655 689.684 58.6655 689.206C58.6655 688.723 58.5684 688.316 58.3743 687.984C58.1849 687.653 57.8937 687.402 57.5007 687.232C57.1125 687.056 56.6224 686.969 56.0305 686.969H53.9567V699H50.8814ZM58.7365 692.381L62.3516 699H58.9567L55.4197 692.381H58.7365ZM66.5135 699H63.218L68.2393 684.455H72.2024L77.2166 699H73.9212L70.2777 687.778H70.1641L66.5135 699ZM66.3075 693.283H74.0916V695.683H66.3075V693.283ZM91.1335 684.455V699H88.4773L82.1491 689.845H82.0426V699H78.9673V684.455H81.6662L87.9446 693.602H88.0724V684.455H91.1335ZM106.508 689.547H103.397C103.341 689.144 103.225 688.787 103.049 688.474C102.874 688.157 102.649 687.887 102.375 687.665C102.1 687.442 101.783 687.272 101.423 687.153C101.068 687.035 100.682 686.976 100.265 686.976C99.5124 686.976 98.8567 687.163 98.2979 687.537C97.7392 687.906 97.306 688.446 96.9982 689.156C96.6905 689.862 96.5366 690.719 96.5366 691.727C96.5366 692.764 96.6905 693.635 96.9982 694.341C97.3107 695.046 97.7463 695.579 98.305 695.939C98.8638 696.299 99.5101 696.479 100.244 696.479C100.656 696.479 101.037 696.424 101.387 696.315C101.743 696.206 102.057 696.048 102.332 695.839C102.607 695.626 102.834 695.368 103.014 695.065C103.199 694.762 103.326 694.417 103.397 694.028L106.508 694.043C106.428 694.71 106.226 695.354 105.904 695.974C105.587 696.59 105.159 697.142 104.619 697.629C104.084 698.112 103.445 698.496 102.701 698.78C101.963 699.059 101.127 699.199 100.194 699.199C98.8969 699.199 97.7369 698.905 96.7141 698.318C95.6961 697.731 94.8912 696.881 94.2994 695.768C93.7122 694.656 93.4187 693.309 93.4187 691.727C93.4187 690.141 93.717 688.792 94.3136 687.679C94.9102 686.566 95.7198 685.719 96.7425 685.136C97.7653 684.549 98.9158 684.256 100.194 684.256C101.037 684.256 101.818 684.374 102.538 684.611C103.262 684.848 103.904 685.193 104.463 685.648C105.021 686.098 105.476 686.649 105.826 687.303C106.181 687.956 106.409 688.704 106.508 689.547ZM108.713 699V684.455H118.515V686.99H111.789V690.456H118.01V692.991H111.789V696.464H118.543V699H108.713Z" fill="#FF6776"/>
<path d="M38.464 354V284.909H84.2097V296.953H53.0716V313.416H81.1735V325.46H53.0716V354H38.464ZM103.893 284.909V354H89.2852V284.909H103.893ZM111.161 354V284.909H138.42C143.638 284.909 148.091 285.842 151.779 287.709C155.49 289.553 158.313 292.174 160.247 295.57C162.203 298.943 163.182 302.913 163.182 307.478C163.182 312.066 162.192 316.013 160.213 319.32C158.234 322.603 155.366 325.122 151.61 326.876C147.877 328.631 143.356 329.508 138.049 329.508H119.798V317.768H135.687C138.476 317.768 140.792 317.385 142.637 316.621C144.481 315.856 145.853 314.709 146.752 313.18C147.675 311.65 148.136 309.75 148.136 307.478C148.136 305.184 147.675 303.25 146.752 301.676C145.853 300.101 144.47 298.909 142.603 298.1C140.759 297.268 138.431 296.852 135.62 296.852H125.769V354H111.161ZM148.473 322.558L165.645 354H149.519L132.718 322.558H148.473ZM168.755 284.909H186.77L205.797 331.33H206.607L225.634 284.909H243.648V354H229.479V309.03H228.906L211.026 353.663H201.377L183.498 308.862H182.924V354H168.755V284.909ZM288.414 304.779C288.144 302.058 286.986 299.944 284.939 298.437C282.893 296.93 280.115 296.177 276.607 296.177C274.223 296.177 272.21 296.514 270.568 297.189C268.926 297.841 267.667 298.752 266.79 299.922C265.935 301.091 265.508 302.418 265.508 303.902C265.463 305.139 265.721 306.219 266.283 307.141C266.868 308.063 267.667 308.862 268.679 309.536C269.691 310.188 270.86 310.762 272.187 311.257C273.514 311.729 274.931 312.134 276.438 312.471L282.645 313.956C285.659 314.63 288.425 315.53 290.944 316.654C293.463 317.779 295.645 319.162 297.489 320.804C299.333 322.446 300.761 324.38 301.774 326.607C302.808 328.833 303.337 331.386 303.359 334.265C303.337 338.493 302.257 342.159 300.12 345.262C298.006 348.344 294.948 350.739 290.944 352.448C286.964 354.135 282.162 354.978 276.539 354.978C270.962 354.978 266.104 354.124 261.965 352.414C257.85 350.705 254.633 348.175 252.317 344.824C250.023 341.45 248.82 337.278 248.707 332.308H262.842C263 334.624 263.663 336.559 264.833 338.11C266.025 339.64 267.61 340.798 269.59 341.585C271.591 342.35 273.852 342.732 276.37 342.732C278.844 342.732 280.992 342.372 282.814 341.653C284.658 340.933 286.086 339.932 287.098 338.65C288.111 337.368 288.617 335.895 288.617 334.231C288.617 332.679 288.156 331.375 287.233 330.317C286.334 329.26 285.007 328.361 283.253 327.619C281.521 326.876 279.395 326.202 276.877 325.594L269.353 323.705C263.528 322.288 258.929 320.073 255.555 317.059C252.182 314.046 250.506 309.986 250.529 304.881C250.506 300.697 251.62 297.043 253.869 293.917C256.14 290.79 259.255 288.35 263.214 286.596C267.172 284.842 271.67 283.964 276.708 283.964C281.836 283.964 286.311 284.842 290.135 286.596C293.981 288.35 296.972 290.79 299.108 293.917C301.245 297.043 302.347 300.664 302.415 304.779H288.414ZM320.208 284.909V292.196C320.208 294.265 319.804 296.379 318.994 298.538C318.207 300.675 317.15 302.699 315.823 304.611C314.496 306.5 313.045 308.108 311.471 309.435L305.129 305.69C306.253 303.914 307.243 301.946 308.097 299.787C308.974 297.627 309.413 295.12 309.413 292.263V284.909H320.208ZM342.538 354V284.909H369.797C375.037 284.909 379.501 285.91 383.19 287.912C386.878 289.891 389.69 292.646 391.624 296.177C393.58 299.685 394.559 303.734 394.559 308.322C394.559 312.91 393.569 316.958 391.59 320.467C389.611 323.975 386.743 326.708 382.987 328.664C379.254 330.621 374.733 331.599 369.426 331.599H352.052V319.893H367.064C369.875 319.893 372.192 319.41 374.014 318.442C375.858 317.453 377.23 316.092 378.129 314.36C379.052 312.606 379.513 310.593 379.513 308.322C379.513 306.028 379.052 304.026 378.129 302.317C377.23 300.585 375.858 299.247 374.014 298.302C372.169 297.335 369.83 296.852 366.997 296.852H357.146V354H342.538ZM399.297 354V284.909H413.905V341.956H443.525V354H399.297ZM462.12 354H446.466L470.318 284.909H489.142L512.96 354H497.306L480 300.697H479.46L462.12 354ZM461.141 326.843H498.116V338.245H461.141V326.843ZM574.239 309.098H559.463C559.193 307.186 558.642 305.488 557.81 304.004C556.978 302.497 555.909 301.215 554.605 300.158C553.3 299.101 551.793 298.291 550.084 297.729C548.397 297.166 546.564 296.885 544.585 296.885C541.009 296.885 537.894 297.774 535.24 299.55C532.587 301.305 530.529 303.869 529.067 307.242C527.605 310.593 526.874 314.664 526.874 319.455C526.874 324.38 527.605 328.518 529.067 331.869C530.551 335.22 532.62 337.751 535.274 339.46C537.928 341.169 540.998 342.024 544.484 342.024C546.441 342.024 548.251 341.765 549.915 341.248C551.602 340.731 553.098 339.977 554.402 338.988C555.707 337.975 556.786 336.75 557.641 335.31C558.518 333.871 559.125 332.229 559.463 330.385L574.239 330.452C573.857 333.624 572.901 336.682 571.371 339.629C569.865 342.552 567.829 345.172 565.265 347.489C562.724 349.783 559.688 351.605 556.157 352.954C552.648 354.281 548.679 354.945 544.248 354.945C538.085 354.945 532.575 353.55 527.717 350.761C522.882 347.973 519.058 343.935 516.247 338.65C513.458 333.365 512.064 326.966 512.064 319.455C512.064 311.92 513.481 305.51 516.315 300.225C519.148 294.94 522.994 290.914 527.852 288.148C532.71 285.359 538.175 283.964 544.248 283.964C548.251 283.964 551.962 284.527 555.381 285.651C558.822 286.776 561.869 288.418 564.523 290.577C567.177 292.713 569.336 295.333 571 298.437C572.687 301.541 573.767 305.094 574.239 309.098ZM579.964 354V284.909H626.519V296.953H594.572V313.416H624.124V325.46H594.572V341.956H626.654V354H579.964ZM633.383 284.909H651.398L670.425 331.33H671.234L690.261 284.909H708.276V354H694.107V309.03H693.534L675.654 353.663H666.005L648.125 308.862H647.552V354H633.383V284.909ZM715.562 354V284.909H762.117V296.953H730.169V313.416H759.722V325.46H730.169V341.956H762.252V354H715.562ZM826.77 284.909V354H814.153L784.094 310.515H783.588V354H768.981V284.909H781.8L811.623 328.361H812.23V284.909H826.77ZM831.458 296.953V284.909H888.201V296.953H867.049V354H852.61V296.953H831.458ZM35.1013 401.909V471H20.4937V401.909H35.1013ZM100.159 401.909V471H87.5419L57.4834 427.515H56.9773V471H42.3697V401.909H55.1893L85.0118 445.361H85.619V401.909H100.159ZM122.084 413.953V401.909H178.828V413.953H157.675V471H143.236V413.953H122.084ZM183.422 471V401.909H198.03V430.416H227.684V401.909H242.258V471H227.684V442.46H198.03V471H183.422ZM249.551 471V401.909H296.107V413.953H264.159V430.416H293.712V442.46H264.159V458.956H296.242V471H249.551ZM320.208 471V401.909H334.815V430.416H364.469V401.909H379.043V471H364.469V442.46H334.815V471H320.208ZM398.245 471H382.592L406.443 401.909H425.268L449.085 471H433.432L416.125 417.697H415.585L398.245 471ZM397.267 443.843H434.241V455.245H397.267V443.843ZM452.651 471V401.909H467.259V458.956H496.879V471H452.651ZM501.802 471V401.909H516.41V458.956H546.03V471H501.802ZM583.743 471L563.974 401.909H579.931L591.367 449.915H591.941L604.558 401.909H618.221L630.805 450.016H631.412L642.848 401.909H658.805L639.036 471H624.8L611.643 425.828H611.103L597.98 471H583.743ZM676.481 401.909V471H661.874V401.909H676.481ZM683.75 471V401.909H698.357V458.956H727.977V471H683.75ZM732.901 471V401.909H747.509V458.956H777.129V471H732.901ZM799.29 471V401.909H826.953C832.036 401.909 836.275 402.663 839.671 404.169C843.067 405.676 845.62 407.768 847.329 410.444C849.039 413.098 849.893 416.157 849.893 419.62C849.893 422.319 849.354 424.692 848.274 426.739C847.194 428.763 845.71 430.427 843.821 431.732C841.954 433.013 839.818 433.924 837.411 434.464V435.139C840.042 435.251 842.505 435.993 844.799 437.365C847.116 438.737 848.994 440.66 850.433 443.134C851.873 445.586 852.592 448.509 852.592 451.906C852.592 455.571 851.681 458.844 849.86 461.723C848.06 464.579 845.395 466.839 841.864 468.504C838.333 470.168 833.981 471 828.808 471H799.29ZM813.897 459.058H825.806C829.877 459.058 832.846 458.282 834.712 456.73C836.579 455.155 837.512 453.064 837.512 450.455C837.512 448.543 837.051 446.856 836.129 445.395C835.207 443.933 833.891 442.786 832.182 441.953C830.495 441.121 828.482 440.705 826.143 440.705H813.897V459.058ZM813.897 430.821H824.726C826.728 430.821 828.505 430.472 830.057 429.775C831.631 429.055 832.868 428.043 833.768 426.739C834.69 425.434 835.151 423.871 835.151 422.049C835.151 419.553 834.262 417.54 832.486 416.011C830.731 414.481 828.235 413.717 824.996 413.717H813.897V430.821ZM857.347 471V401.909H903.903V413.953H871.955V430.416H901.507V442.46H871.955V458.956H904.038V471H857.347ZM39.5553 588H23.9019L47.7531 518.909H66.5777L90.3952 588H74.7417L57.4353 534.697H56.8955L39.5553 588ZM38.577 560.843H75.5514V572.245H38.577V560.843ZM151.75 518.909V588H139.133L109.075 544.515H108.569V588H93.961V518.909H106.781L136.603 562.361H137.21V518.909H151.75ZM216.859 518.909V588H204.242L174.183 544.515H173.677V588H159.069V518.909H171.889L201.711 562.361H202.319V518.909H216.859ZM287.669 553.455C287.669 560.989 286.24 567.399 283.384 572.684C280.55 577.969 276.682 582.006 271.779 584.795C266.899 587.561 261.411 588.945 255.316 588.945C249.176 588.945 243.666 587.55 238.785 584.761C233.905 581.973 230.048 577.935 227.214 572.65C224.38 567.365 222.963 560.966 222.963 553.455C222.963 545.92 224.38 539.51 227.214 534.225C230.048 528.94 233.905 524.914 238.785 522.148C243.666 519.359 249.176 517.964 255.316 517.964C261.411 517.964 266.899 519.359 271.779 522.148C276.682 524.914 280.55 528.94 283.384 534.225C286.24 539.51 287.669 545.92 287.669 553.455ZM272.859 553.455C272.859 548.574 272.128 544.458 270.666 541.107C269.226 537.756 267.191 535.215 264.56 533.483C261.928 531.751 258.847 530.885 255.316 530.885C251.785 530.885 248.704 531.751 246.072 533.483C243.441 535.215 241.394 537.756 239.932 541.107C238.493 544.458 237.773 548.574 237.773 553.455C237.773 558.335 238.493 562.451 239.932 565.802C241.394 569.153 243.441 571.694 246.072 573.426C248.704 575.158 251.785 576.024 255.316 576.024C258.847 576.024 261.928 575.158 264.56 573.426C267.191 571.694 269.226 569.153 270.666 565.802C272.128 562.451 272.859 558.335 272.859 553.455ZM336.415 518.909H351.023V563.778C351.023 568.816 349.819 573.224 347.413 577.002C345.029 580.781 341.689 583.727 337.393 585.841C333.098 587.933 328.094 588.978 322.381 588.978C316.646 588.978 311.631 587.933 307.335 585.841C303.039 583.727 299.699 580.781 297.315 577.002C294.931 573.224 293.739 568.816 293.739 563.778V518.909H308.347V562.529C308.347 565.161 308.92 567.5 310.067 569.547C311.237 571.593 312.879 573.201 314.993 574.371C317.107 575.54 319.57 576.125 322.381 576.125C325.215 576.125 327.678 575.54 329.769 574.371C331.883 573.201 333.514 571.593 334.661 569.547C335.83 567.5 336.415 565.161 336.415 562.529V518.909ZM416.081 518.909V588H403.463L373.405 544.515H372.899V588H358.291V518.909H371.111L400.933 562.361H401.54V518.909H416.081ZM484.36 543.098H469.584C469.314 541.186 468.763 539.488 467.931 538.004C467.099 536.497 466.03 535.215 464.726 534.158C463.421 533.101 461.915 532.291 460.205 531.729C458.518 531.166 456.685 530.885 454.706 530.885C451.13 530.885 448.015 531.774 445.362 533.55C442.708 535.305 440.65 537.869 439.188 541.242C437.726 544.593 436.995 548.664 436.995 553.455C436.995 558.38 437.726 562.518 439.188 565.869C440.672 569.22 442.741 571.751 445.395 573.46C448.049 575.169 451.119 576.024 454.605 576.024C456.562 576.024 458.372 575.765 460.037 575.248C461.723 574.731 463.219 573.977 464.523 572.988C465.828 571.975 466.907 570.75 467.762 569.31C468.639 567.871 469.246 566.229 469.584 564.385L484.36 564.452C483.978 567.624 483.022 570.682 481.493 573.629C479.986 576.552 477.95 579.172 475.386 581.489C472.845 583.783 469.809 585.605 466.278 586.954C462.769 588.281 458.8 588.945 454.369 588.945C448.207 588.945 442.696 587.55 437.838 584.761C433.003 581.973 429.18 577.935 426.368 572.65C423.579 567.365 422.185 560.966 422.185 553.455C422.185 545.92 423.602 539.51 426.436 534.225C429.27 528.94 433.115 524.914 437.973 522.148C442.831 519.359 448.297 517.964 454.369 517.964C458.372 517.964 462.083 518.527 465.502 519.651C468.943 520.776 471.99 522.418 474.644 524.577C477.298 526.713 479.457 529.333 481.121 532.437C482.808 535.541 483.888 539.094 484.36 543.098ZM490.085 588V518.909H536.64V530.953H504.693V547.416H534.245V559.46H504.693V575.956H536.775V588H490.085ZM567.996 588H543.504V518.909H568.199C575.148 518.909 581.131 520.292 586.146 523.059C591.161 525.802 595.019 529.75 597.717 534.9C600.439 540.05 601.799 546.213 601.799 553.387C601.799 560.584 600.439 566.769 597.717 571.942C595.019 577.115 591.139 581.084 586.079 583.85C581.041 586.617 575.013 588 567.996 588ZM558.112 575.484H567.389C571.707 575.484 575.339 574.719 578.286 573.19C581.254 571.638 583.481 569.243 584.965 566.004C586.472 562.743 587.226 558.537 587.226 553.387C587.226 548.282 586.472 544.11 584.965 540.871C583.481 537.632 581.266 535.248 578.319 533.719C575.373 532.19 571.741 531.425 567.423 531.425H558.112V575.484ZM625.108 588V518.909H639.715V575.956H669.335V588H625.108ZM687.93 588H672.277L696.128 518.909H714.953L738.77 588H723.117L705.81 534.697H705.271L687.93 588ZM686.952 560.843H723.926V572.245H686.952V560.843ZM731.262 530.953V518.909H788.006V530.953H766.854V588H752.415V530.953H731.262ZM792.601 588V518.909H839.156V530.953H807.208V547.416H836.761V559.46H807.208V575.956H839.291V588H792.601ZM846.02 588V518.909H873.278C878.496 518.909 882.949 519.842 886.638 521.709C890.348 523.553 893.171 526.174 895.105 529.57C897.062 532.943 898.04 536.913 898.04 541.478C898.04 546.066 897.051 550.013 895.071 553.32C893.092 556.603 890.225 559.122 886.469 560.876C882.735 562.631 878.215 563.508 872.907 563.508H854.656V551.768H870.546C873.334 551.768 875.651 551.385 877.495 550.621C879.339 549.856 880.711 548.709 881.611 547.18C882.533 545.65 882.994 543.75 882.994 541.478C882.994 539.184 882.533 537.25 881.611 535.676C880.711 534.101 879.328 532.909 877.461 532.1C875.617 531.268 873.289 530.852 870.478 530.852H860.627V588H846.02ZM883.331 556.558L900.503 588H884.377L867.577 556.558H883.331Z" fill="#FF6776"/>
</svg>
